<svg xmlns="http://www.w3.org/2000/svg" width="79.341" height="79">
    <defs>
        <style>
            .cls-1{fill:none;stroke:#5ab662;stroke-linecap:round;stroke-linejoin:round;stroke-width:2px}
        </style>
    </defs>
    <g id="Finance_Business" data-name="Finance / Business" transform="translate(1.457 1)">
        <g id="그룹_5420" data-name="그룹 5420" transform="translate(-.457)">
            <g id="그룹_5419" data-name="그룹 5419">
                <path id="사각형_549" data-name="사각형 549" class="cls-1" d="M4 0h8.642a4 4 0 0 1 4 4v18.433a4 4 0 0 1-4 4H4a4 4 0 0 1-4-4V4a4 4 0 0 1 4-4z" transform="translate(0 39.798)"/>
                <path id="사각형_550" data-name="사각형 550" class="cls-1" d="M4 0h8.642a4 4 0 0 1 4 4v18.433a4 4 0 0 1-4 4H4a4 4 0 0 1-4-4V4a4 4 0 0 1 4-4z" transform="translate(60.698 39.798)"/>
                <path id="패스_9990" data-name="패스 9990" class="cls-1" d="M3551 3923.931v-7.656a38.275 38.275 0 1 1 76.549 0v7.656" transform="translate(-3550.553 -3878)"/>
            </g>
            <path id="사각형_551" data-name="사각형 551" class="cls-1" transform="translate(35.244 74.063)" d="M0 0h7.832v2.937H0z"/>
            <path id="패스_9991" data-name="패스 9991" class="cls-1" d="M3617.657 3908.934v25.516l-25.515 10.207h-10.208" transform="translate(-3540.66 -3868.107)"/>
        </g>
    </g>
</svg>
