<svg xmlns="http://www.w3.org/2000/svg" width="74.945" height="80.191">
    <defs>
        <style>
            .cls-1{fill:none;stroke:#5ab662;stroke-linecap:round;stroke-linejoin:round;stroke-width:2px}
        </style>
    </defs>
    <g id="그룹_5421" data-name="그룹 5421" transform="translate(1.073 1)">
        <path id="패스_9992" data-name="패스 9992" class="cls-1" d="M2778.355 3922.1c0-21.594-7.24-39.1-16.179-39.1S2746 3900.5 2746 3922.1s7.24 39.1 16.176 39.1 16.179-17.516 16.179-39.1z" transform="translate(-2725.778 -3883)"/>
        <path id="패스_9993" data-name="패스 9993" class="cls-1" d="M2775.53 3931.277c19.589-10.286 31.833-24.6 27.337-31.979s-24-5.023-43.6 5.262-31.834 24.6-27.343 31.98 24.014 5.018 43.606-5.263z" transform="translate(-2731 -3878.823)"/>
        <path id="패스_9994" data-name="패스 9994" class="cls-1" d="M2759.269 3931.277c-19.6-10.286-31.835-24.6-27.34-31.979s24-5.023 43.6 5.262 31.833 24.6 27.345 31.98-24.018 5.018-43.605-5.263z" transform="translate(-2731 -3878.823)"/>
        <path id="패스_9995" data-name="패스 9995" class="cls-1" d="M2763.089 3913.044a4.044 4.044 0 1 1-4.046-4.044 4.051 4.051 0 0 1 4.046 4.044z" transform="translate(-2722.645 -3873.949)"/>
    </g>
</svg>
