<svg xmlns="http://www.w3.org/2000/svg" width="53.258" height="37.768">
    <defs>
        <style>
            .cls-1{fill:none;stroke:#64cc6e;stroke-linecap:round;stroke-linejoin:round;stroke-width:2px}
        </style>
    </defs>
    <g id="그룹_5391" data-name="그룹 5391" transform="translate(-394 -3276)">
        <g id="그룹_5385" data-name="그룹 5385" transform="translate(395 3277)">
            <g id="그룹_5384" data-name="그룹 5384">
                <g id="그룹_5383" data-name="그룹 5383">
                    <g id="그룹_5382" data-name="그룹 5382">
                        <g id="그룹_5381" data-name="그룹 5381" transform="translate(1.695 1.104)">
                            <path id="패스_3114" data-name="패스 3114" class="cls-1" d="m443.99 3278-23.728 19.9-23.729-19.9" transform="translate(-396.533 -3277.999)"/>
                        </g>
                        <path id="패스_3115" data-name="패스 3115" class="cls-1" d="M430.371 3310.16h-30.95a4.434 4.434 0 0 1-4.421-4.421v-24.318a4.434 4.434 0 0 1 4.421-4.422h42a4.434 4.434 0 0 1 4.421 4.422v11.053" transform="translate(-395 -3277)"/>
                    </g>
                </g>
            </g>
        </g>
        <g id="그룹_5388" data-name="그룹 5388" transform="translate(439.57 3296.544)">
            <g id="그룹_5387" data-name="그룹 5387">
                <g id="그룹_5386" data-name="그룹 5386">
                    <path id="선_134" data-name="선 134" class="cls-1" transform="translate(-.147 .224)" d="M0 14V0"/>
                </g>
            </g>
        </g>
        <g id="그룹_5390" data-name="그룹 5390" transform="translate(432.582 3296.544)">
            <g id="그룹_5389" data-name="그룹 5389">
                <path id="패스_3116" data-name="패스 3116" class="cls-1" d="m429 3301.632 6.631-6.632 6.631 6.632" transform="translate(-429 -3294.647)"/>
                <path id="선_135" data-name="선 135" class="cls-1" transform="translate(6.841 .224)" d="M0 0v16"/>
            </g>
        </g>
    </g>
</svg>
