<svg xmlns="http://www.w3.org/2000/svg" width="98.837" height="17.627">
    <defs>
        <style>
            .cls-1{fill:#009ddf}
        </style>
    </defs>
    <g id="그룹_3308" data-name="그룹 3308" transform="translate(-1176.737 -366.425)">
        <g id="그룹_5535" data-name="그룹 5535" transform="translate(-29.686)">
            <path id="패스_2899" data-name="패스 2899" class="cls-1" d="M1251.888 377.929c-2.093-.576-2.784-.887-2.784-1.823 0-.863.713-1.487 1.9-1.487 1.921 0 2.417.935 2.525 1.751h4.446c-.108-2.518-1.856-5.156-6.95-5.156-4.23 0-6.885 2.23-6.885 5.636 0 2.35 1.36 3.693 5.417 4.844 2.309.671 2.784 1.175 2.784 2.086 0 1.2-1.014 1.607-2.375 1.607-1.834 0-2.719-.863-2.914-2.134h-4.532c.281 3.621 2.741 5.588 7.23 5.588 4.921 0 7.6-2.35 7.6-5.708-.001-2.374-1.145-4.005-5.462-5.204z" transform="translate(-36.098 -4.789)"/>
            <path id="패스_2900" data-name="패스 2900" class="cls-1" d="m1281.636 372.064-8.676 16.859h4.878l1.683-3.237h5.72l.432 3.237h4.727l-2.633-16.859zm-.41 9.856c1.23-2.662 2.266-4.964 2.806-6.4h.065c.086 1.415.346 3.741.691 6.4z" transform="translate(-52.801 -5.256)"/>
            <path id="패스_2901" data-name="패스 2901" class="cls-1" d="M1329.62 372.064h-2.457c-1.683 3.789-3.626 8.274-4.511 10.672h-.022c.065-2.206-.13-7-.281-10.672h-6.49l-3.216 16.859h4.209l1.079-5.491c.436-2.325.815-5.266 1.093-7.348.074 3.987.18 9.173.239 12.84h3.885c2.317-5.476 4.078-9.692 5.32-12.883-.592 2.636-1.249 5.643-1.549 7.2l-1.079 5.684h4.6l3.216-16.859z" transform="translate(-74.576 -5.256)"/>
            <path id="패스_2902" data-name="패스 2902" class="cls-1" d="M1367.6 372.064h-7.49l-3.216 16.859h4.619l.928-5.239h3.626c4.123 0 7.166-2.195 7.166-6.368.005-3.262-2.197-5.252-5.633-5.252zm-1.856 8.047h-2.612l.885-4.5h2.4c1.575 0 2.158.744 2.158 1.847a2.581 2.581 0 0 1-2.827 2.653z" transform="translate(-98.861 -5.256)"/>
            <path id="패스_2903" data-name="패스 2903" class="cls-1" d="M1404.655 372.064c-.976 1.436-3.5 4.952-5.427 7.613-.485-1.933-1.468-5.5-2.1-7.613h-5.007l4.115 11.357a2.676 2.676 0 0 1 .083.292l-3.658 5.21h4.705l4.288-6.043 7.964-10.816z" transform="translate(-118.188 -5.256)"/>
            <path id="패스_2904" data-name="패스 2904" class="cls-1" d="M1433.192 371.214c-6.626 0-9.432 5.348-9.432 10.192 0 4.149 2.374 7.435 7.49 7.435 6.389 0 9.561-4.677 9.561-10.144 0-4.197-2.569-7.483-7.619-7.483zm-1.554 13.982c-1.986 0-2.871-1.463-2.871-3.837 0-2.686 1.274-6.571 4.188-6.571 2.18 0 2.892 1.631 2.892 3.525 0 2.973-1.166 6.887-4.209 6.887z" transform="translate(-135.551 -4.789)"/>
        </g>
    </g>
</svg>
