<svg xmlns="http://www.w3.org/2000/svg" width="96.52" height="83.668">
    <defs>
        <style>
            .cls-1{fill:none;stroke:#64cc6d;stroke-linecap:round;stroke-linejoin:round;stroke-width:2px}
        </style>
    </defs>
    <g id="그룹_5318" data-name="그룹 5318" transform="translate(-496.23 -674.964)">
        <g id="그룹_5314" data-name="그룹 5314" transform="translate(516.49 675.966)">
            <g id="그룹_5313" data-name="그룹 5313" transform="translate(10.231 25.199)">
                <g id="그룹_5312" data-name="그룹 5312">
                    <path id="패스_3071" data-name="패스 3071" class="cls-1" d="M535.314 702.416a7.13 7.13 0 0 0 0 14.259h7.129v-7.13a7.129 7.129 0 0 0-7.129-7.129z" transform="translate(-528.185 -702.416)"/>
                    <path id="패스_3072" data-name="패스 3072" class="cls-1" d="M564.779 709.545a7.129 7.129 0 1 0-14.258 0v7.13h7.129a7.13 7.13 0 0 0 7.129-7.13z" transform="translate(-529.241 -702.416)"/>
                </g>
                <path id="패스_3073" data-name="패스 3073" class="cls-1" d="M550.172 738.584v-21.2h-7.021v21.2" transform="translate(-528.893 -703.124)"/>
            </g>
            <g id="그룹_5311" data-name="그룹 5311">
                <g id="그룹_5310" data-name="그룹 5310">
                    <path id="패스_3068" data-name="패스 3068" class="cls-1" d="M573.446 703.965a28 28 0 1 0-46.8 20.74 11.343 11.343 0 0 1 3.634 8.423v3.972h30.333v-3.971a11.339 11.339 0 0 1 3.631-8.42 27.909 27.909 0 0 0 9.202-20.744z" transform="translate(-517.446 -675.966)"/>
                    <path id="패스_3069" data-name="패스 3069" class="cls-1" d="M562.1 750.4h-32.663a5.133 5.133 0 0 1-5.133-5.133h0a5.133 5.133 0 0 1 5.133-5.133H562.1a5.133 5.133 0 0 1 5.133 5.133h0a5.133 5.133 0 0 1-5.133 5.133z" transform="translate(-517.771 -679)"/>
                    <path id="패스_3070" data-name="패스 3070" class="cls-1" d="M562.1 761.176h-32.663a5.133 5.133 0 0 1-5.133-5.133h0a5.134 5.134 0 0 1 5.133-5.134H562.1a5.134 5.134 0 0 1 5.133 5.134h0a5.133 5.133 0 0 1-5.133 5.133z" transform="translate(-517.771 -679.51)"/>
                </g>
            </g>
        </g>
        <g id="그룹_5315" data-name="그룹 5315" transform="translate(497.23 703.609)">
            <path id="선_108" data-name="선 108" class="cls-1" d="M8.434 0H0"/>
            <path id="선_109" data-name="선 109" class="cls-1" transform="translate(86.086)" d="M8.434 0H0"/>
        </g>
        <g id="그룹_5316" data-name="그룹 5316" transform="translate(503.319 680.403)">
            <path id="선_110" data-name="선 110" class="cls-1" d="M7.347 4.141 0 0"/>
            <path id="선_111" data-name="선 111" class="cls-1" transform="translate(74.993 42.271)" d="M7.347 4.141 0 0"/>
        </g>
        <g id="그룹_5317" data-name="그룹 5317" transform="translate(503.319 680.403)">
            <path id="선_112" data-name="선 112" class="cls-1" transform="translate(74.993)" d="M0 4.141 7.347 0"/>
            <path id="선_113" data-name="선 113" class="cls-1" transform="translate(0 42.271)" d="M0 4.141 7.347 0"/>
        </g>
    </g>
</svg>
