<svg xmlns="http://www.w3.org/2000/svg" width="134.265" height="134.265">
    <defs>
        <style>
            .cls-1,.cls-2{fill:none;stroke-linecap:round;stroke-linejoin:round;stroke-width:3px}.cls-1{stroke:#6b6e6f}.cls-2{stroke:#64cc6e}
        </style>
    </defs>
    <g id="그룹_56" data-name="그룹 56" transform="translate(-137.549 -741.064)">
        <path id="선_18" data-name="선 18" class="cls-1" transform="translate(204.681 742.565)" d="M0 0v131.263"/>
        <path id="패스_15" data-name="패스 15" class="cls-2" d="M170.037 804.453a108.569 108.569 0 0 1-3.031-25.817h-27.957a65.33 65.33 0 0 0 14.217 40.764 66.065 66.065 0 0 1 16.771-14.947z" transform="translate(0 29.56)"/>
        <path id="패스_16" data-name="패스 16" class="cls-2" d="M169.249 773.758a66.034 66.034 0 0 1-17.509-16.435 65.319 65.319 0 0 0-12.691 38.777h27.956a110.086 110.086 0 0 1 2.244-22.342z" transform="translate(0 12.095)"/>
        <path id="패스_17" data-name="패스 17" class="cls-2" d="M194.6 773.758a110.086 110.086 0 0 1 2.243 22.343h27.956a65.319 65.319 0 0 0-12.699-38.778 66.034 66.034 0 0 1-17.5 16.435z" transform="translate(45.519 12.095)"/>
        <path id="패스_18" data-name="패스 18" class="cls-2" d="M197.193 778.636a108.567 108.567 0 0 1-3.031 25.817 66.033 66.033 0 0 1 16.77 14.951 65.33 65.33 0 0 0 14.217-40.767z" transform="translate(45.164 29.56)"/>
        <path id="패스_19" data-name="패스 19" class="cls-2" d="M163.633 792.825a66.065 66.065 0 0 0-16.77 14.951 65.5 65.5 0 0 0 51.415 24.865c-15.546 0-28.888-16.405-34.645-39.816z" transform="translate(6.403 41.188)"/>
        <path id="패스_20" data-name="패스 20" class="cls-2" d="M209.766 792.825c-5.757 23.411-19.1 39.816-34.645 39.816a65.5 65.5 0 0 0 51.415-24.865 66.033 66.033 0 0 0-16.77-14.951z" transform="translate(29.56 41.188)"/>
        <path id="패스_21" data-name="패스 21" class="cls-2" d="M210.554 785.853a66.034 66.034 0 0 0 17.509-16.435 65.529 65.529 0 0 0-52.941-26.854c16.303 0 30.184 18.042 35.432 43.289z" transform="translate(29.56)"/>
        <path id="패스_22" data-name="패스 22" class="cls-2" d="M163.533 785.853c5.247-25.247 19.128-43.289 35.433-43.289a65.529 65.529 0 0 0-52.941 26.854 66.034 66.034 0 0 0 17.508 16.435z" transform="translate(5.716)"/>
        <path id="패스_23" data-name="패스 23" class="cls-1" d="M227.522 785.853c-5.247-25.247-19.128-43.289-35.433-43.289s-30.185 18.042-35.433 43.289a110.086 110.086 0 0 0-2.243 22.343 108.569 108.569 0 0 0 3.031 25.817c5.757 23.411 19.1 39.816 34.645 39.816s28.888-16.4 34.645-39.816a108.567 108.567 0 0 0 3.031-25.817 110.086 110.086 0 0 0-2.243-22.343z" transform="translate(12.591)"/>
        <path id="패스_24" data-name="패스 24" class="cls-1" d="m164.222 762.237 19.86 19.86 19.336-19.336" transform="translate(20.628 16.122)"/>
        <path id="패스_25" data-name="패스 25" class="cls-1" d="m164.222 774.26 19.86 19.86 19.336-19.336" transform="translate(20.628 25.974)"/>
        <path id="패스_26" data-name="패스 26" class="cls-1" d="m164.222 786.283 19.86 19.86 19.336-19.336" transform="translate(20.628 35.827)"/>
    </g>
</svg>
