<svg xmlns="http://www.w3.org/2000/svg" width="135.617" height="135.772">
    <g data-name="그룹 57">
        <path data-name="패스 27" d="M244.725 1123.417h-12.313a1.788 1.788 0 0 0-1.581 2.659 10.442 10.442 0 1 1-17.978.059 1.77 1.77 0 0 0-1.478-2.717h-14.519a4.543 4.543 0 0 1-4.542-4.543V1105.5a1.793 1.793 0 0 0-2.639-1.581 10.441 10.441 0 1 1-.015-18.5 1.8 1.8 0 0 0 2.654-1.575v-11.349a4.569 4.569 0 0 0-5.011-4.524 56.131 56.131 0 1 0 61.041 59.259 3.618 3.618 0 0 0-3.619-3.813z" transform="translate(-134.67 -1045.747)" style="stroke:#6b6e6f;fill:none;stroke-linecap:round;stroke-linejoin:round;stroke-width:3px"/>
        <path data-name="패스 28" d="M198.386 1054.152v13.841a1.792 1.792 0 0 1-2.557 1.622 8.767 8.767 0 0 0-5.606-.584 8.705 8.705 0 1 0 5.576 16.4 1.8 1.8 0 0 1 2.587 1.611v13.839h13.843a1.793 1.793 0 0 1 1.622 2.557 8.779 8.779 0 0 0-.585 5.606 8.706 8.706 0 1 0 16.4-5.576 1.8 1.8 0 0 1 1.611-2.587h13.839" transform="translate(-110.999 -1052.652)" style="stroke:#64cc6e;fill:none;stroke-linecap:round;stroke-linejoin:round;stroke-width:3px"/>
    </g>
</svg>
