<svg xmlns="http://www.w3.org/2000/svg" width="151.66" height="25.274" viewBox="0 0 151.66 25.274">
    <defs>
        <style>
            .cls-2{fill:#fff}
        </style>
    </defs>
    <g id="그룹_5540" data-name="그룹 5540" transform="translate(-872.508 -763.863)" style="opacity:.8">
        <path id="패스_3195" data-name="패스 3195" class="cls-2" d="M877.242 770.928c.028 0 .028 0 .028.028.028.115.116.23-.143.517a2.979 2.979 0 0 0-.6 1.466 3.157 3.157 0 0 1-.69 1.525 1 1 0 0 1-.058.287.1.1 0 0 1-.028.058h.345v.6h-.087a1.218 1.218 0 0 1 .346.317l.316.345a.594.594 0 0 0 .087.661.948.948 0 0 1 .2.777 1.48 1.48 0 0 0 .029.344 1.021 1.021 0 0 1-.288 1.064c.086.028.143.085.173.085v.058a1.459 1.459 0 0 1 .574 1.266 2.133 2.133 0 0 0 .317 1.092v.259a1.133 1.133 0 0 0-.058.863 2.868 2.868 0 0 1 .058.517 1.3 1.3 0 0 1 0 .8l.028-.028a1.1 1.1 0 0 0-.028.69s0 1.381-1.122.23a4.6 4.6 0 0 0-.316-1.467l.028.029a3.953 3.953 0 0 1-.259-2.184 1.876 1.876 0 0 1-.4-1.237 2.88 2.88 0 0 0-.173-.863l-.4-1.523-.26-1.007a8.671 8.671 0 0 0-.4 1.381 6.238 6.238 0 0 1-.777 1.984h.028l.116.258c-.69.288-.863.086-1.035-.143-.46-.461-.23-.028-.144-.805a1.054 1.054 0 0 1 .4-.92 26.408 26.408 0 0 1 1.667-4.514l.575-1.323.346-.863a30.591 30.591 0 0 0 1.15-3.623c.834 1.237.806 1.525.749 2.128a5.227 5.227 0 0 0-.029.719zm9.8 3.91a4.2 4.2 0 0 0-.516.719l-.029.116h-.058c-.028.028-.028.028-.028.057v-.03h-.058l-.229.345v-.2a1 1 0 0 0-.317.461l.23.2-.288-.028-.085.317h-.029c-.057.229-.172.4-.316.373a2.733 2.733 0 0 0-.6.661l-.6.633-.4.374-.029.2h-.172a.949.949 0 0 0-.144.431c-.143.518-.229.92-.6.633l-.2.316h.086l.115.23-.489.2c-.6.661 0 .6-1.265.6l-.029-.2h-.372a11.32 11.32 0 0 1-.172-2.128c0-.691.028-1.466.085-2.128.029-.575.059-1.265.059-1.754l.258-.287c.028-.575.086-1.41.143-1.984a17.541 17.541 0 0 0 .144-2.156l.547-.028c-.029-.029-.057-.058-.087-.058a1.356 1.356 0 0 1 .6-.087 3.722 3.722 0 0 1 .2.978c.029.431.086.921.43 1.093a6.518 6.518 0 0 1-.086 1.036 3.293 3.293 0 0 0 .086 1.551l-.316.26v1.15c-.144.144-.144.172-.144.259a1.233 1.233 0 0 1-.086.489c.145.058.086.172.086.316 0 .057 0 .116-.028.116.2-.059.373-.288.575-.575a1.694 1.694 0 0 1 .92-.777c.085 0 .085-.431.085-.661h.317c-.231-.258 0-.316.316-.373.086 0 .2-.028.2-.23.2-.46.43-.4.719-.345a.1.1 0 0 1 .057.029 1 1 0 0 1 .058-.288 1.047 1.047 0 0 1 .4-.632l.4-.431c-.488-.23-.316-.288.028-.288-.058 0-.115-.057-.143-.143.546 0 .517-.173.575-.374a1.248 1.248 0 0 1 .43-.661 5.5 5.5 0 0 0 .547-2.272l.288.231c0-.432.028-.691.862.143-.2.2-.172.259-.116.316v.085l.461-.805a4.237 4.237 0 0 1 .259 2.1 3.8 3.8 0 0 0-.058.575l-.2.172a.7.7 0 0 1 .229.69c0 .057-.028.2-.028.23v.977l-.46-.057s.172.747-.086.747l.23.23a1.309 1.309 0 0 0-.26.863l.2.316h-.2a.6.6 0 0 1 .116.173.412.412 0 0 0 .172.057c-.028.058-.085.086-.085.144a1.472 1.472 0 0 1 .057.374l-.115-.144a.72.72 0 0 0-.028.23 1.341 1.341 0 0 1-.259.861c.115.144.057.288-.086.4a.171.171 0 0 0-.058.144l-.057.287c-.116.116 0 .2.028.373.058.23.143.432-.115.518l.143.172a1.972 1.972 0 0 1-.46.805l-.632.949-.575-.575.259-4.227c0-.057-.028-.172-.028-.229a.675.675 0 0 1 .087-.718h-.03a.882.882 0 0 0 0-.719 1.482 1.482 0 0 1-.057-.805zm-2.9 2.847h.2c.028-.028 0-.057-.144-.057zm.145-1.812h.2c0-.085-.028-.345-.2-.172z" transform="translate(0 -.336)"/>
        <path id="패스_3196" data-name="패스 3196" class="cls-2" d="M899.744 766.358v-.145c1.094.49.633 1.064.316 1.41.23.172.115.373.028.517l-.058.057a2.563 2.563 0 0 0-.833.978c-.115.172-.346.488-.346.488a.234.234 0 0 0-.259.2c-.115.287-.2.517-.489.575a2.56 2.56 0 0 1-.718.776 8.562 8.562 0 0 0-.547.776 1.284 1.284 0 0 1-.632.6v.2c0 .289-.2.289-.374.289.058.028.116.028.116.115l-.116-.058a.354.354 0 0 1 .116.229l-.517.575a5.186 5.186 0 0 1 .517-.229 9.636 9.636 0 0 0 1.725-.862l.288.316c.2-.287.489-.6.833-.431.231-.287.662-.431.863-.086h.4a.906.906 0 0 0 .2.547v.287c.172 0 .172.028.172.028a.739.739 0 0 1-.229.489l-.575.92-.116.374-.086.085h.086a.665.665 0 0 1-.517.575h.028a.4.4 0 0 0-.346.316h-.058a4.814 4.814 0 0 1-1.15 1.84h.057l-.919.892a1.371 1.371 0 0 1 .2.23h-.028a1.186 1.186 0 0 0 .115.2c.086-.115.029-.258.173-.43.259-.4.6-.777 1.063-.489h.058c-.058 0-.058-.028-.058-.144a4.2 4.2 0 0 1 .834.058 2.272 2.272 0 0 0 .461.058l-.259-.231 1.122-.632a4.611 4.611 0 0 1 .861-.058c0 .489.144.547.317.633a3.558 3.558 0 0 1 .488.288.907.907 0 0 1-.259.6c-.086.116-.172.23-.028.547l-.144.173.086.172a1.345 1.345 0 0 0-.517.69l-.258.4-.2.172c.26.287-.143.69-.488.978h.028l-.4.431-.057-.028-.144.115h.029a.223.223 0 0 0-.087.2l-.661.632a.226.226 0 0 0-.23.115c-.115.115-.172.173-.632.173a1.711 1.711 0 0 0-.143.344c-.116.229-.029.432-.374.432l-.518.574h-.115l.23.373-.287.116v.029c.115-.059.259-.059.4-.116a.774.774 0 0 0 .46-.4 1.349 1.349 0 0 0 .92-.316 1.383 1.383 0 0 1 1.15-.287l.373-.173c.317-.143.69-.315.777-.516l.286.058c0-.029.058-.086.058-.115l.461.057v.087a2.476 2.476 0 0 1 1.093-.432v-.287c.373 0 .547.028.633.116h.172a1.178 1.178 0 0 1 .834-.375h.46l.029.029.144-.259.488.058.517.057a.727.727 0 0 1 .49.144h.057l.058-.288c.517.059.517.461.517.805h-.92c.028.143.116.288.46.345-.229.116-.4.2-.4.287h-.2l-.173.2h-.143c-.116.518-.863.6-1.553.662a6.642 6.642 0 0 0-.748.115l-1.265.834v-.057a2.713 2.713 0 0 1-.69.057c-.23 0-.489 0-1.207.718v-.13a6.1 6.1 0 0 1-1.583.69 7.068 7.068 0 0 0-1.034.345h.086a1.431 1.431 0 0 1-.719.2.849.849 0 0 0-.748.345s-.489.2-.489-.059a1.739 1.739 0 0 1-1.207-.229l-.431-.6.172-.143-.229-.116c-.374-.144-.777-.2-.374-.633a1.652 1.652 0 0 1 .346-.6.881.881 0 0 0 .229-.575h.057a7.841 7.841 0 0 0 .69-.777 3.749 3.749 0 0 1 1.409-1.322c.029-.345.46-.575.806-.8.143-.086.258-.172.258-.259v-.288a3.879 3.879 0 0 0 1.208-1.15 3.314 3.314 0 0 1 .432-.461c-.029 0-.058-.058-.086-.086a.1.1 0 0 0 .028-.058l-.028.029v-.029c-.028-.028-.028 0 0 .029l-.461.431v-.143c-.776.229-1.438.574-2.214.861-.374.172-1.15.49-1.582.633v-.288c-.143-.028-.259-.028-.346-.143-.747 1.035-.344-.058-.632-.547-.259-.259-.144-.632-.029-.919l.231-.461h.259a2.37 2.37 0 0 1 .661-1.208 1.223 1.223 0 0 0 .4-.861 8.352 8.352 0 0 0 1.869-2.158c.115-.143.2-.316.317-.488a.441.441 0 0 1-.23-.23 7.111 7.111 0 0 1-2.444 1.15c-.345 0-.461-.115-.518-.229 0 0-.028-.029.028-.059l-.115-.057-.085.086h-.69l-.058-.288c.086 0 .028-.143-.029-.286a.662.662 0 0 1 .029-.691c-.116-.2.028-.345.173-.546a.387.387 0 0 0 .115-.288 2.121 2.121 0 0 0 .346-.489 1.573 1.573 0 0 1 .545-.661h-.053a8.429 8.429 0 0 1 1.466-1.668 6.066 6.066 0 0 0 1.035-1.063l-.028.028a2.414 2.414 0 0 1 .777-.949 2.267 2.267 0 0 0 .8-1.035h-.431c-.92.316-1.87.718-2.789 1.035v.316c-.058 0-.4.028-.517.028-.49.086-1.294.115-1.438-.287-.317 0-.26-.058-.029-.288 0 0 .029.058.029-.373a1.994 1.994 0 0 0 1.7-.144l.488-.2a5.2 5.2 0 0 0 1.381-.489c.488-.432.632-.345.661-.229l.144-.059.575-.028.115-.116a1.43 1.43 0 0 0 .6-.2.8.8 0 0 1 .605-.095zm-3.336 19.321c-.028 0-.086.029-.116.029l.058.029z" transform="translate(-1.713 -.194)"/>
        <path id="패스_3197" data-name="패스 3197" class="cls-2" d="M913.617 779.683c.144-.116.317-.289.574 0l.346.085c.115.029.2.086.2-.316 0-.777.317-.49.632-.059a.088.088 0 0 1 .028-.057l.461.057v.231a1.872 1.872 0 0 1 .92.4l-.144.116h.288l-.431.43.431.432c-.4 0-.116.547-.116.547h-.345v.143c0 .575.086 1.207-.546 1.294a.765.765 0 0 1-.058.489l.029-.028c-.029.172-.115.374 0 .547a1.858 1.858 0 0 1-.431.315.245.245 0 0 0-.144.26l-.259.258a1.353 1.353 0 0 0 .287.288l-.4.43h-.287l.115.144c.144.2.26.4-.2.662a.368.368 0 0 1 .028.172.785.785 0 0 0 .029.259 4.252 4.252 0 0 1 .546-.259.052.052 0 0 1 0 .085.52.52 0 0 1 .2-.143c.231-.489.575-.346 1.007-.259.258.057.546.115.546-.373 0 0 .46-.317.46 0 .2-.23.46-.49.518.085.057-.028.115-.028.143-.057a2.236 2.236 0 0 1 .518-.633l.115.229a1.776 1.776 0 0 1 .776 0 1.061 1.061 0 0 1 .288.029 1.367 1.367 0 0 1 1.005-.316c0 .4 0 .718-.661 1.408-.2-.4-.23-.4-.26-.373h.029a1.208 1.208 0 0 1-.374.2v.2l-.431.317a1.9 1.9 0 0 1-.316.345c-.116.172-.661.172-.661.172-.086-.029-.2.115-.346.26-.316.316-.575.632-1.121.43a.889.889 0 0 1-.287.145.965.965 0 0 0-.461.286l-1.151.432a1.134 1.134 0 0 1-.69 0l-1.093.2a2.7 2.7 0 0 1-.287-.287h-.172a.5.5 0 0 0-.144-.057l-.517-.2-.144.144v-.231l-.115-.086h.115c-.028-.286-.057-.43-.057-.489-.058-.229-.172-.4.143-.718l.374-.2h-.028c.143-.085.287-.172.172-.489l.173.058c-.087-.058-.029-.229.085-.374-.373-.516-.172-.748.059-1.063a.977.977 0 0 0 .229-.69l.23-.26c0-.086.028-.258.028-.316a4.935 4.935 0 0 0 .431-.575 3.721 3.721 0 0 1 .432-.517.6.6 0 0 1 .287-.69c.028-.028.086-.058-.23-.318a3.239 3.239 0 0 1-.891.289l-2.042.861h-.028l.085.086a1.817 1.817 0 0 1-.143.489l-.086.173a.592.592 0 0 1 .2.516l.028-.028v1.322h-.31c0 .059.028.087.057.144a.8.8 0 0 1-.029.835c.373.4.086.517-.2.718-.116.057-.23.143-.086.4a.819.819 0 0 0-.115.46c0 .317-.949.863-1.006.259h-.288c-.43 0-.461-.23-.575-.517a1.866 1.866 0 0 0-.258-.461l.258-.574a.543.543 0 0 1-.028-.517 1.033 1.033 0 0 0 0-.92c.259-.144.23-.374.2-.6-.028-.287-.059-.6.316-.8l-.2-.26a9.038 9.038 0 0 0 .23-1.092 5.419 5.419 0 0 1 .345-1.178 1.549 1.549 0 0 0-.115-.461c-.116-.4-.2-.748.316-.979-.143-.143-.085-.172-.085-.258 0-.057 0-.115-.116-.259a.636.636 0 0 1 .806-.144 4.941 4.941 0 0 1 1.151.95v.229l.286.317.116-.116h.144v-.287c.086-1.582.229-2.962.43-4.341.058-.375.058-.69.116-1.094a1.746 1.746 0 0 0-.6.173 1.813 1.813 0 0 1-.661.2c-1.265.517-2.5 1.064-3.8 1.61-.028.4-.545.431-1.035.46-1.524.259-.259-1.61-.2-1.754a1.777 1.777 0 0 1 .575-.286c.057-.26.115-.518.489-.46.057-.288.345-.229.69-.288s.834-.144.718-.086c.116.317.059.145.26-.028a1.1 1.1 0 0 1 .517-.287v-.172l.488-.058c-.058-.086-.115-.115-.172-.086.288-.2.547-.373.691-.23a2.98 2.98 0 0 1 .689-.057v.172h.231c.029 0 .029 0 .029-.057l1.12-.776a1.978 1.978 0 0 1 .373-.143 9.257 9.257 0 0 0 2.158-.575l-.028.028.861-.374c.115-.229.259-.4.461-.229.086 0 .143.028.2.028a.107.107 0 0 0 .086-.028l-.029.028c.087-.058.173 0 .173-.318l.661.028s.748 1.065.172 1.065a1.636 1.636 0 0 1-.978.6 1.539 1.539 0 0 1-.431.259v-.028c-.086.057-.115.028-.4.345a1.99 1.99 0 0 0-1.007.345 3.33 3.33 0 0 1-.46.23 2.267 2.267 0 0 0-.4 1.726c0 .143.029.286.029.4l-.317.863-.116.085h.288a.854.854 0 0 0-.317.718c0 .23.028.4-.115.575.287.317.143.633.028.95-.115.345-.489.172-.086.316h.028l.288-.229zm-3.883-5.751c-.028.028-.057.058-.085.058zm3.049-8.856a2.739 2.739 0 0 1 .489.143l-.086.26c.229.258.372.46.172.748.115.258.172.229.259.229.2.057.373.057.345.575.115.115.229.259-.172.517l.172.23h-.028c.057.086-.058.028.287.373l-.287.317c.43.4.287.516.172.661 0 0-.028.029.086.116a1.977 1.977 0 0 1-1.84.862 3.052 3.052 0 0 0-.833.173c-.69 0-.69-.288-.69-.518l-.173.087a2.387 2.387 0 0 1-.344-1.237 2.243 2.243 0 0 1 .143-.892 1.344 1.344 0 0 1 .028-.834c.087-.23.317-.718.317-.718v-.661a2.052 2.052 0 0 1 1.7 1.409c-.259 0-.574 0-.574.143l-.231.834c.317.373.116.575 0 .777a.821.821 0 0 0-.115.345 1.181 1.181 0 0 1 .834 0 1.911 1.911 0 0 1 .345-.345h-.028c.086-.058.143-.086.086-.2l-.086-.259a.653.653 0 0 1 .172-.748l.087-.085c-.431-.173-.49-.72-.49-1.18-.057-.144-.23-.2-.345-.259-.373-.144-.69-.373-.431-1.006.2 0 .2 0 .2-.317-.003-.001.745-.001.859.46zm-.8 23.4h.172a.215.215 0 0 0-.115-.057c-.033.004-.033.033-.061.061zm.4-.028c0-.086-.029-.028-.058 0zm1.407-19.748c-.028-.028-.028-.028-.028-.086-.144 0-.144.028-.144.028zm.633 12.853a1.882 1.882 0 0 1-.432.286c.489 0 .489 0 .489-.143v-.2c-.028 0-.057.058-.085.058z" transform="translate(-2.734 -.062)"/>
        <path id="패스_3198" data-name="패스 3198" class="cls-2" d="M931.54 771.494a7.633 7.633 0 0 1-.058.8 11.45 11.45 0 0 0-.057.979 4.971 4.971 0 0 0 .144 1.179h-.116a1.54 1.54 0 0 1-.116.46l.028-.029a1.567 1.567 0 0 0-.115.69v.46a1.363 1.363 0 0 1-.345.231 1.087 1.087 0 0 1 .059.316l-.289.289a1.313 1.313 0 0 1-.143 1.034 1.689 1.689 0 0 0-.143.777h-.145c.173.287-.172.488-.287.517h.086l-.144.144c.8.229.229.431.229.776 0 .143 0 .316-.488.862a4.365 4.365 0 0 0-.086.949l-.115.115h.288l-.863.863c-.575 0-.575-.116-.575-.316 0-.115 0-.229-.316-.547.431 0 .143-.143.143-.143a.429.429 0 0 0 .173-.4.588.588 0 0 1 .144-.43 7.652 7.652 0 0 1 .057-.834c.03-.316.059-.6.059-.919a2.462 2.462 0 0 0-.116-.806.816.816 0 0 0 .287-.69h-.287c-.086.461-.575.719-1.093.949v-.028a3.822 3.822 0 0 0-.6.372l-.748.374h.028c-1.582.862-3.421 1.812-5 2.645-.373-.344-.373-.344-1.035-.344v-.6c-.374-.059-.374-.289-.4-.518a.82.82 0 0 0-.259-.489 3.1 3.1 0 0 1 1.005-.229l2.876-1.468.718-.229c0-.028-.058-.115.057 0a1.3 1.3 0 0 1 .777-.689v-.145l.373-.085a.055.055 0 0 1 0-.087l1.41-.258 1.034-.575c0-.144-.028-.26-.143-.288l.086-.259h.547c.057.115.057.143.085.143l.173-.057.116-.058v-.028h-.116l-.115-.229.23-.087.6-.144.259-1.581.345-1.15a1.108 1.108 0 0 1 .2-.921v-1.724a2.279 2.279 0 0 1 1.092.977c.087.2.173.346.316.346zm-7.332-2.5c.287.085.546.546.546.546l-.259.259a1.482 1.482 0 0 1 .547.978h-.342l.057.115c.373.229.317.229.2.4a.223.223 0 0 0 .086.173 2.753 2.753 0 0 0-.058 1.38 6.786 6.786 0 0 1 .058 1.207c-.26.346-.345 1.007-1.525 1.294a.254.254 0 0 0-.373.029s-.546-.287-.805-.029c-1.207-.286-1.294-1.12-1.381-2.04a5.807 5.807 0 0 0-.143-.95l.028.029c-.143-.316.058-.575.23-.805a1.289 1.289 0 0 0 .26-1.351h.4s-.028.058.2-.173v-.978c.776 0 .718.144.8.288.057.144.144.287.317.287a12.156 12.156 0 0 0-.116 1.438 2.963 2.963 0 0 1-.374.892c.144.115.029.373 0 .6a2.009 2.009 0 0 0-.057.46h-.2c.059.085.059.2.087.23.028.172.028.315.229.315.259.173.374-.085.517-.315v.028c.144-.23.229-.4.489-.489v-1.035a9.533 9.533 0 0 0-.431-2.531l.028.028-.229-.747h1.207zm1.667 8.28v-.115l-.028.115z" transform="translate(-3.865 -.386)"/>
        <path id="패스_3199" data-name="패스 3199" class="cls-2" d="M948.753 769.664c.2.229.259.287.346.316a3.435 3.435 0 0 1 .718.46.616.616 0 0 1-.489.575c.028.028.057.028.143.057a2.654 2.654 0 0 1-.8 2.244h-.143a2.619 2.619 0 0 1-.028 1.15 2.906 2.906 0 0 0-.059.546 1.349 1.349 0 0 0-.69.116c.517.115.431.517.374.891a1.494 1.494 0 0 0-.029.374c-.461 0-.461.2-.517.431a1.082 1.082 0 0 1-.173.517c.086.173-.085.317-.259.489-.23.2-.488.431.028.978-.46 0-.46.172-.46.316a2.006 2.006 0 0 0 0 .95l-.317.316-.287.575a1.423 1.423 0 0 1-.086.835 3.116 3.116 0 0 0-.805 1.551c-.086.259-.144.518-.259.834l-.6.749a3.244 3.244 0 0 1-.517-1.639 2.371 2.371 0 0 1 .2-1.122c.26-.258.029-.258.029-.258a12.681 12.681 0 0 1 .546-1.554 5.727 5.727 0 0 0 .46-3.1.765.765 0 0 0 .547-.69 1.5 1.5 0 0 1 .23-.661 21.789 21.789 0 0 1 .718-2.273 16.662 16.662 0 0 0 .575-1.7.748.748 0 0 0-.172.144.757.757 0 0 1-.834.229l-.632.2a6.074 6.074 0 0 0-2.215 1.005v.95c-1.323-.431-1.351-1.035-1.294-1.582 0-.115.028-.258.028-.373 0-.661-.69-.95.575-.345-.028-.058-.115-.2-.058-.26a.723.723 0 0 0 .2.116v-.346a1.941 1.941 0 0 1 .979.145l.029-.03c-.2-.46.086-.574.373-.632v-.2c.173 0 .373.345.489.69 0-.028 0-.028.029-.057a1.311 1.311 0 0 1 1.12-.949c-.344-.575 0-.46.518-.288.085.028.2.086.287 0 .173-.172.46-.143.719-.143l.575-.719zm6.412-.172a1.035 1.035 0 0 1 .719.287v1.552h-.346v.087h.661v.575h-.258a2.363 2.363 0 0 1 0 .776.606.606 0 0 0 .373.747l-.777.633h.346v.748l-.288-.144c0 .115-.028.2-.028.259-.029.087-.029.144.317.144v.891a.594.594 0 0 1-.4.2 1.674 1.674 0 0 0 .23.23c-.46 0-.2.461-.2.461a1.344 1.344 0 0 1-.286 1.294h.028a.923.923 0 0 0-.059 1.179c-.344.344-.2.718-.085 1.063l-.029-.028c.173.46.4.834-.229 1.063a2.727 2.727 0 0 1 .172.806 2.253 2.253 0 0 1-1.206 1.784 1.19 1.19 0 0 1-.431-1.064 1.372 1.372 0 0 0-.173-.863c.345-.344.26-.546.173-.69a.663.663 0 0 1-.116-.747l-.028.057.057-1.006c.2-1.783.259-3.421.288-5.175l.373-4.946c.144 0 .144-.057.173-.143.029-.26.144-.518 1.035-.518z" transform="translate(-5.724 -.424)"/>
        <path id="패스_3200" data-name="패스 3200" class="cls-2" d="m970.161 776.284.028-.028.461.058a1.312 1.312 0 0 1-.086.316c-.058.115-.086.229.115.4l-.373.345-3.652.805-1.869.259a1.067 1.067 0 0 1-.633-.747v.488a.615.615 0 0 0-.489.23c-.116.115-.172.2-.287.229 0 .461-.086.749-.69.777v.144c-.028 0-.057.028-.2.115l.317.229a.8.8 0 0 0-.4.633c-.029.2.028.345-.26.374 0 .316-.057.747-1.064.747v-.373a1.2 1.2 0 0 0 .059-.719 1.243 1.243 0 0 1 .2-1.034c-.2-.4.144-.719.374-.979a.509.509 0 0 0 .115-.258 2.385 2.385 0 0 1 .748-1.811 1.913 1.913 0 0 1 .258-.461l-.029.028a1.428 1.428 0 0 0 .288-.8 2.474 2.474 0 0 0 .287-.547 1.689 1.689 0 0 1 .2-.4 1.455 1.455 0 0 1 .287-.6.552.552 0 0 0 .143-.49h-.057a1.065 1.065 0 0 1-.575.2v.258c-.258 0-.8 0-1.006.432a2.9 2.9 0 0 1-1.121.316 4.289 4.289 0 0 0-1.178.4l-.26.229v-.172l-.229.23v-.777a.606.606 0 0 1-.23 0 1.92 1.92 0 0 0-.172.346l-.431-.633s.087.058.087-.2l.8-.719c.143 0 .172-.058.229-.172.029-.028.058-.057.748-.317h.259c.086-.172.2-.345.978-.46a1.667 1.667 0 0 1 .4-.058c.058 0 .116 0 .575-.488a1.244 1.244 0 0 0-.057-.317 1.834 1.834 0 0 1 .115-1.207c.058 0 .058-.058.058-.086v-.229a1.056 1.056 0 0 1-.115-.26v-1.7h.289c-.289-.316-.318-.574.172-1.063-.172-.23.086-.661.086-.661.028 0 .057 0 .057.028a.3.3 0 0 1 .115-.23c-.172-.23-.085-.43-.028-.661a.786.786 0 0 0 .059-.373h.028a1.47 1.47 0 0 1 .172-.575 1.237 1.237 0 0 0 .058-.431h1.7a.338.338 0 0 0 .172.143c.172.029.287.087.287.575l-.172.058a12.468 12.468 0 0 0-.489 2.847 23.773 23.773 0 0 1-.2 1.552l-.259.26a1.757 1.757 0 0 1 0 .6 1.992 1.992 0 0 1-.144.891 1.367 1.367 0 0 1 .144-.172h.2v-.143c.43-.432.6-.346.8-.086.2-.116.374.086.6.229a.548.548 0 0 1 .461.287l.085.835a.738.738 0 0 1-.345.6 1.569 1.569 0 0 1-.144.977 1.6 1.6 0 0 0-.143.719c0 .144-.172.259-.316.373-.086.116-.517.835-.546.921a1.143 1.143 0 0 1-.23.315 1.584 1.584 0 0 0-.431 1.151l-.488.058a.089.089 0 0 1-.028-.058.029.029 0 0 0-.03.029c-.028 0-.028.057 0 .028v.028h1.063c0 .116-.057.173-.085.173h.085a.488.488 0 0 1 .2-.029.651.651 0 0 1 .115-.144h.258l.231-.258h.144l.833-.115.26.028a2.5 2.5 0 0 1 .776-.144.544.544 0 0 1 .69-.173.393.393 0 0 1 .316.116c0-.028-.028-.058-.028-.086a.3.3 0 0 0 .288-.115zm-3.25 4.544-.345.344-.115-.115a.666.666 0 0 1-.115.432.626.626 0 0 1 .229.69.619.619 0 0 0 .058.373l-.431.144c-.2-.2-.058.086.2.316 0 .26-.2.26-.4.317-.029 0-.029 0-.058.057h.46a.627.627 0 0 1-.259.489c0 .028.058.143.058.172a.829.829 0 0 1-.172.891.8.8 0 0 1-.029.173v.028l.231.258a.629.629 0 0 1 .516-.315c.144-.173.373-.173.633-.173h1.063a1.462 1.462 0 0 0 .231-.2 1.027 1.027 0 0 1 .43-.287c.058-.115.26-.115.517-.115l.028-.059.461.03v-.288c.489.258.489.172.489.172h1.265l.172-.058a.742.742 0 0 1 .892.173v.316c-.231.058-.26.374-.26.6l-.143.028c.115.229-.172.258-.489.373a.558.558 0 0 0-.431.316h-.087a.815.815 0 0 1-.69.172 1.343 1.343 0 0 1-.546.2l-.115.058c0 .286-.115.286-.316.2a.218.218 0 0 1 .058.144 1.612 1.612 0 0 1-.4-.029c-.115.145-.317.375-.633.173l-.172.028c-.028-.028-.058 0-.116.059l-.46.43s.028.029-.374-.116a.608.608 0 0 1-.431.2c-.2.345-.547.2-.892.116-.028 0-.028 0-.028.143h-.287a1.625 1.625 0 0 1-.46.288c.2-.059-.893.92-.633.23-.116 0-.172.029-.172 0a2.994 2.994 0 0 1-.518.286 4.813 4.813 0 0 1-.747.317l-.145-.144-.172.345-1.15-.374c-.259-.116-.547-.259-.287-.6-.086-.259-.145-.516-.23-.748a2.851 2.851 0 0 1 1.438-.718 1.38 1.38 0 0 0 1.092-.891h.059a.153.153 0 0 1-.087-.116.346.346 0 0 0 .087-.173l.115-.229a.313.313 0 0 0 .259-.115l-.23-.231a2.892 2.892 0 0 1 .345-1.264 8.048 8.048 0 0 0 .4-1.006c-.115-.2-.115-.316-.029-.373h-.057a.785.785 0 0 0 .086-.69c-.029-.058-.115-.029.258-.23a2.034 2.034 0 0 1 .346-1.324l-.115-.143.517-.287.431-.4c.116-.143.317-.345.661.4a4.969 4.969 0 0 0-.259 1.33zm-3.766-13 .2-.028c-.086-.288-.2-.173-.2-.173zm1.063-2.847c-.317-.4-.373-.431-.373-.115a1.16 1.16 0 0 1 .373.118zm1.582 20.619c0 .028.028.028.086-.144l-.115.144zm.432-5.578c-.346-.4-.375-.517-.375-.116a1.145 1.145 0 0 1 .375.117z" transform="translate(-7.121)"/>
        <path id="패스_3201" data-name="패스 3201" class="cls-2" d="M979.744 768.75a.324.324 0 0 0 .144.316h-.028c.229.144.4.229.229.6.317.229.144.489-.058.718-.143.2-.258.374.058.547a1 1 0 0 0 .057.374c.058.344.173.718-.661.718a.4.4 0 0 1 .23.2c.086.287.259.575.116.805a7.377 7.377 0 0 0-.835 2.242c-.058.259-.086.547-.23 1.093h-.115a6.651 6.651 0 0 0-.144.719 4.447 4.447 0 0 1-.373 1.15 4.084 4.084 0 0 0-.143.8 2.7 2.7 0 0 1-.719 1.984l.43.46h-.46v.633h-.891v-.833l-.518.546a11.086 11.086 0 0 0 .489-2.961 10.081 10.081 0 0 1 .374-1.983 9.164 9.164 0 0 0 .891-2.761 10.577 10.577 0 0 1 .979-2.875v-.942l-.835.288a11.047 11.047 0 0 0-2.846 1.438c-.087 0-.144.086-.173.172-.172.288-.345.518-.748.144a.767.767 0 0 1-.6-.8.99.99 0 0 0-.229-.6l3.8-2.041a1.647 1.647 0 0 0 1.207-.231c.575-.258 1.064-.488 1.524-.028zm5.665 2.674a.37.37 0 0 0 .345.345 2.716 2.716 0 0 1-.288 1.322c.288.116.288.373.229.749a1.451 1.451 0 0 0 .144 1.005h-.43v.806l1.063-.575h.6c-.086-.144.173-.144.46-.144v-.032a1.1 1.1 0 0 1 .863-.2c.058.028.086 0 .086-.058a3.578 3.578 0 0 0-.374-.344 1.169 1.169 0 0 1 1.352-.288.666.666 0 0 0 .718-.172h.977c.086.085.2.057.317 0a1.217 1.217 0 0 1 .46-.145v-.6c.92.892.719.863.632 1.006-.028.028-.057.057-.057.288l-1.035.316a1.232 1.232 0 0 1-.691.23c-.2.028-.4.028-.661.691l-.46-.059v.317a2.571 2.571 0 0 1-.892.288c-.316.058-.661.144-1.208.977-.372-.373-.574-.143-.8.086l-.431.172-.661.374c-.143-.144-.229-.058-.316 0l-.26.172a1.2 1.2 0 0 0 .058.317c.115.489.231 1.006-.259 1.006l.058.03h.316c-.345.344-.345.488-.345.6s.029.2-.057.258a2.48 2.48 0 0 1 .172 1.207 1.423 1.423 0 0 0 .116 1.007c.231.661-.43.748-1.121.833a2.346 2.346 0 0 0-.949.317 7.074 7.074 0 0 1-.316-1.9 6.618 6.618 0 0 1 .516-2.5 4.387 4.387 0 0 1-.172-1.207 3 3 0 0 1 .461-1.61l.69-7.562a3.029 3.029 0 0 1 1.5 2.674z" transform="translate(-8.308 -.372)"/>
        <path id="패스_3202" data-name="패스 3202" class="cls-2" d="m1004.358 777.425-.891.2c-.259.2-.892 0-.892 0-.661-.345-.6-.776-.547-1.265a2.127 2.127 0 0 0 .029-.432l.346-.833a6.256 6.256 0 0 1 .286-.747v.028c.086-.432.173-.893.23-1.322a5.717 5.717 0 0 1 .806-2.56l-2.617.862v.373c-.949 0-1.839-.345-1.839-1.409a.994.994 0 0 1 .919-.575 1.048 1.048 0 0 0 .518-.172h.115v-.288h.92c.144-.287.632-.317 1.063-.317.144.115.2.058.289-.028a.989.989 0 0 1 .775-.345c.028-.087.143-.144.259-.23h-.028l1.294-.287a.685.685 0 0 1 .26-.058l.632-.287h.086c.143-.317.834-.317 1.207-.317v.144c.575-.346 1.237-.661 1.237.316l-.028.058c-.144.374-.575.574-.92.748a.891.891 0 0 0-.345.2l-1.9.949-1.668.574a1.859 1.859 0 0 1 .575 1.179 5.286 5.286 0 0 1-.373 1.583 1.5 1.5 0 0 1 .086.977c-.029.172-.086.431-.086.516 0 .518.287.4.6.289a2.32 2.32 0 0 1 .748-.173l2.128-.862v-.287h.517l-.287-.345h1.063l.517-.6v.776l.086-.057v-.834c.517.547.575.6.547.6a.925.925 0 0 1 .632.229 2.587 2.587 0 0 1-.057.316.572.572 0 0 0 .085.69l-.775.718h-.345c-.173.144-.373.345-.547.461a4.263 4.263 0 0 1-.862.374l-.172.057-.2.144.058.172c-.517.115-.431.575-.373 1.006a1.546 1.546 0 0 1-.058.8 3.732 3.732 0 0 0-.489 1.955c-.317 0-.373.346-.345.6s.028.574-.2.689v.317s-.229.028-.258.547a8.54 8.54 0 0 1 1.323-.461l.028-.028c.287-.145.517-.432.661-.288a1.459 1.459 0 0 1 .92-.2c.087-.2.345-.143.575-.028-.028-.028-.028-.028-.028-.057l.6-.2h.058a2.587 2.587 0 0 0 .776-.373h-.028l.086-.058.028.029a.521.521 0 0 1 .748-.26l.288-.116a.934.934 0 0 0 .574-.545h.2l.949-5.377a4.792 4.792 0 0 1 .862 2.271 5.262 5.262 0 0 1-.2 1.351c.144.23.028.4 0 .6-.058.2-.116.373 0 .46a5.142 5.142 0 0 0 .028 1.179c.028.461.087.748-.259 1.006a5.8 5.8 0 0 1-.144.8 2.716 2.716 0 0 0-.115.777v1.782h-.288v1.036a1.872 1.872 0 0 1-1.639-.661 12.625 12.625 0 0 1 .2-2.962.767.767 0 0 1-.144-.172l-.058.085a4.394 4.394 0 0 1-.805.95v-.4a.906.906 0 0 1-.229.058v.028l-.518.547a3.822 3.822 0 0 1-1.294.517 1.225 1.225 0 0 0-.546.229l-4.141 1.409a1.588 1.588 0 0 0-.6.173h-.029a1.567 1.567 0 0 1-1.207.085 1.279 1.279 0 0 1-.861-.287 1.541 1.541 0 0 1-.375.028v-1.294a2.614 2.614 0 0 0 1.15-.69h-.028a3.811 3.811 0 0 1 .69-.4l-.143.057a3.371 3.371 0 0 1 .461-.661 2.61 2.61 0 0 0 .6-.977l.8-1.869 1.121-2.617zm1.553 4.888a.219.219 0 0 0 .115-.028l-.115-.116zm5.606-1.525c.028-.028 0-.057-.116-.057z" transform="translate(-10.467 -.278)"/>
        <path id="패스_3203" data-name="패스 3203" class="cls-2" d="m1024.97 768.933-2.962 1.067-3.623 1.207v.316a4.124 4.124 0 0 0-.661.028c-.546.057-1.121.143-1.438-.461a16.636 16.636 0 0 1 4.428-1.812c.633-.2 1.265-.344 1.9-.574a2.834 2.834 0 0 0 .833-.23h-.028a3.327 3.327 0 0 1 1.322-.316h.978zm-4.027 10.725a.107.107 0 0 0 .086.028 1.021 1.021 0 0 1 .461-.258l.661-.547c.028-.028.057-.028.057-.057a1.5 1.5 0 0 1 .317-.49h.086c0-.286.258-.43.489-.546.028 0 .086-.086.086-.258h.315a1.739 1.739 0 0 1 .807-.835h-.029a2.376 2.376 0 0 0 .431-.316.893.893 0 0 0 .4-.4.81.81 0 0 1 .8-.46 1.88 1.88 0 0 0 .691-.546.823.823 0 0 1 .488-.431l1.554-1.553c-.058-.058-.116-.086-.145-.144.461-.718.173-.4.231-.547l-.029.029a.915.915 0 0 1 1.035-.834.979.979 0 0 0 .46.317c.144.058 0-.087.144.028.317-.259.374-.028.575.23l.23.288a8.941 8.941 0 0 1-.23 2.587v.288l-.259.259a2.885 2.885 0 0 0 .086.719 1.208 1.208 0 0 1 .144-.029c.086 0 .259-.058.777-.574.2.258.229.258.258.229h.028a2.072 2.072 0 0 1 .4-.115v-.23a1.139 1.139 0 0 0 1.092-.058c.23-.116.345-.316.662-.172a2.009 2.009 0 0 1 .718 0c.143.028.286.028.229-.086 0 0 .432-.317.432-.057l.229-.23s.575.575.172.977h-.488a.531.531 0 0 1-.144.2l-.029.028h.23c0 .517-.461.517-1.035.517v-.144l-.029.029c-.057.057-.085.143-.172.23.747.46-.806.43-.806.43h-.086a2.626 2.626 0 0 1-.575.26l-.488.2a3.721 3.721 0 0 0-1.726 1.064 1.4 1.4 0 0 0-.432.115c0 .058 0 .172.029.2.085.173.23.346 0 .4 0 .028.028.057.057.115a.736.736 0 0 1-.057.834v.6a.835.835 0 0 1-.029.892l.26.8v.057l.086.289c-.028 0-.086.085-.116.143h.029c-.2.287-.317.575-.69.143a.215.215 0 0 0-.059.116l-.546-.029v-.028a1.567 1.567 0 0 1-.373-.2.563.563 0 0 0-.374-.143 2.368 2.368 0 0 1-.2-1.036 1.728 1.728 0 0 0-.346-1.122 1.839 1.839 0 0 0 .2-.8 3.879 3.879 0 0 0-.2-1.007 16.18 16.18 0 0 0 .489-3.363l-1.581 1.18h.028l-4.543 4.313-1.783 1.179-.546-.2c.028 0 .057-.057.143-.115l-.057-.057c-.4-.058-1.15-.316-1.121-.6a12.746 12.746 0 0 1-.059-1.494 33.723 33.723 0 0 1 .691-5.981c.029-.317.086-.575.144-.892l.575-1.5c.517 0 1.005 0 1.005.345a3.726 3.726 0 0 1-.23.978 1.379 1.379 0 0 0-.028.834c-.172.2.143.4.432.4-.432.431-.432.6-.432.834.547.345.173.69.173.69l-.115.116a.506.506 0 0 1 .2.69c-.028.115-.116.2 0 .316a.35.35 0 0 0 0 .517z" transform="translate(-11.872 -.355)"/>
    </g>
</svg>
