<svg xmlns="http://www.w3.org/2000/svg" width="146.392" height="59.298" viewBox="0 0 146.392 59.298">
    <g transform="translate(-211.595 -195.918)">
        <path fill="#ffffff" d="M236.377 258.831c.023 0 .023 0 .023.023.022.088.09.178-.111.4a2.289 2.289 0 0 0-.464 1.127 2.423 2.423 0 0 1-.53 1.172.781.781 0 0 1-.044.22.082.082 0 0 1-.023.046h.264v.464h-.066a.944.944 0 0 1 .266.243l.242.266a.457.457 0 0 0 .067.508.727.727 0 0 1 .155.6 1.19 1.19 0 0 0 .022.266.782.782 0 0 1-.22.817c.064.023.109.066.132.066v.044a1.116 1.116 0 0 1 .441.973 1.646 1.646 0 0 0 .243.839v.2a.869.869 0 0 0-.044.663 2.149 2.149 0 0 1 .044.4.986.986 0 0 1 0 .618l.022-.022a.849.849 0 0 0-.022.53s0 1.062-.862.178a3.52 3.52 0 0 0-.243-1.128l.023.022a3.048 3.048 0 0 1-.2-1.679 1.442 1.442 0 0 1-.308-.95 2.2 2.2 0 0 0-.133-.664l-.309-1.171-.2-.774a6.512 6.512 0 0 0-.31 1.061 4.8 4.8 0 0 1-.6 1.525h.021l.089.2c-.531.221-.664.066-.8-.11-.354-.354-.177-.023-.11-.62a.808.808 0 0 1 .309-.707 20.235 20.235 0 0 1 1.282-3.47l.442-1.017.265-.664a23.25 23.25 0 0 0 .883-2.785c.642.95.62 1.172.576 1.636a4.137 4.137 0 0 0-.022.552zm7.537 3.007a3.22 3.22 0 0 0-.4.552l-.022.088h-.044c-.023.024-.023.024-.023.044v-.02h-.044l-.176.264v-.156a.767.767 0 0 0-.244.354l.177.154-.221-.023-.066.244h-.022c-.044.176-.133.309-.243.286a2.093 2.093 0 0 0-.463.508l-.464.486-.31.288-.022.154h-.134a.752.752 0 0 0-.11.332c-.11.4-.176.708-.464.487l-.154.243h.066l.088.176-.374.154c-.465.508 0 .464-.973.464l-.023-.154h-.287a8.684 8.684 0 0 1-.133-1.635c0-.532.022-1.128.067-1.636.022-.442.044-.972.044-1.348l.2-.221c.023-.442.066-1.084.111-1.525a13.648 13.648 0 0 0 .111-1.659l.42-.022c-.022-.022-.044-.044-.066-.044a1.028 1.028 0 0 1 .464-.066 2.874 2.874 0 0 1 .156.75c.022.332.066.708.33.841a5.125 5.125 0 0 1-.066.8 2.528 2.528 0 0 0 .066 1.192l-.242.2v.884c-.111.111-.111.133-.111.2a.966.966 0 0 1-.065.376c.11.044.065.132.065.242 0 .044 0 .09-.022.09.155-.045.287-.221.442-.442a1.305 1.305 0 0 1 .707-.6c.066 0 .066-.331.066-.508h.244c-.178-.2 0-.243.242-.286.066 0 .155-.022.155-.178.155-.353.331-.309.553-.264a.079.079 0 0 1 .044.022.787.787 0 0 1 .044-.221.8.8 0 0 1 .31-.487l.308-.33c-.375-.178-.243-.222.022-.222-.044 0-.088-.044-.11-.11.42 0 .4-.133.442-.288a.969.969 0 0 1 .331-.508 4.237 4.237 0 0 0 .42-1.747l.221.178c0-.331.022-.53.662.111-.154.154-.132.2-.088.243v.066l.354-.62a3.265 3.265 0 0 1 .2 1.614 2.75 2.75 0 0 0-.046.442l-.154.133a.533.533 0 0 1 .176.53c0 .044-.022.155-.022.178v.75l-.353-.044s.133.575-.067.575l.178.178a1 1 0 0 0-.2.662l.156.244h-.156a.428.428 0 0 1 .089.133.323.323 0 0 0 .133.044c-.023.044-.066.066-.066.11a1.136 1.136 0 0 1 .044.288l-.09-.11a.571.571 0 0 0-.021.176 1.023 1.023 0 0 1-.2.663c.088.111.044.221-.066.31a.13.13 0 0 0-.044.11l-.044.222c-.089.088 0 .154.022.286.044.178.111.332-.088.4l.111.132a1.53 1.53 0 0 1-.354.62l-.487.728-.442-.442.2-3.249c0-.044-.023-.133-.023-.176a.52.52 0 0 1 .067-.552h-.023a.681.681 0 0 0 0-.553 1.147 1.147 0 0 1-.044-.62zm-2.232 2.187h.155c.022-.023 0-.044-.111-.044zm.111-1.393h.154c0-.066-.022-.264-.154-.13z" transform="translate(-6.233 -17.871)"/>
        <path fill="#ffffff" d="M258.474 254.92v-.11c.84.376.486.817.242 1.082.178.133.088.288.023.4l-.045.044a1.979 1.979 0 0 0-.64.752c-.088.132-.265.374-.265.374a.179.179 0 0 0-.2.156c-.088.22-.154.4-.377.441a1.967 1.967 0 0 1-.552.6 6.534 6.534 0 0 0-.42.6.986.986 0 0 1-.487.464v.154c0 .221-.154.221-.287.221.044.023.089.023.089.088l-.089-.044a.27.27 0 0 1 .089.176l-.4.442a3.741 3.741 0 0 1 .4-.176 7.431 7.431 0 0 0 1.326-.663l.221.243c.154-.22.376-.464.64-.332.178-.22.508-.33.664-.066h.308a.694.694 0 0 0 .156.42v.222c.132 0 .132.022.132.022a.567.567 0 0 1-.176.374l-.441.708-.089.288-.066.066h.066a.513.513 0 0 1-.4.442h.022a.3.3 0 0 0-.266.243h-.044a3.712 3.712 0 0 1-.884 1.415h.044l-.706.685a1.143 1.143 0 0 1 .154.176h-.016a.94.94 0 0 0 .088.154c.067-.088.022-.2.133-.331.2-.31.464-.6.817-.376h.044c-.044 0-.044-.022-.044-.11a3.306 3.306 0 0 1 .641.044 1.686 1.686 0 0 0 .354.044l-.2-.178.862-.487a3.611 3.611 0 0 1 .663-.044c0 .376.111.42.243.487a2.7 2.7 0 0 1 .376.221.7.7 0 0 1-.2.464c-.066.088-.132.176-.022.42l-.11.132.066.133a1.022 1.022 0 0 0-.4.53l-.2.31-.156.133c.2.221-.11.53-.375.752h.021l-.308.332-.044-.022-.111.088h.023a.169.169 0 0 0-.066.154l-.508.487c-.111 0-.155.044-.177.088-.088.088-.133.133-.487.133a1.357 1.357 0 0 0-.11.264c-.09.176-.022.332-.288.332l-.4.442h-.088l.177.286-.221.09v.022c.088-.045.2-.045.31-.088a.6.6 0 0 0 .354-.31 1.031 1.031 0 0 0 .707-.244 1.066 1.066 0 0 1 .884-.22l.288-.134c.243-.11.53-.243.6-.4l.221.044c0-.022.044-.066.044-.088l.354.044v.066a1.909 1.909 0 0 1 .841-.331v-.221c.287 0 .42.023.486.088h.133a.9.9 0 0 1 .641-.288h.353l.022.022.11-.2.376.044.4.044a.556.556 0 0 1 .376.11h.044l.044-.22c.4.044.4.354.4.618h-.707c.022.11.089.221.353.266-.176.088-.31.154-.31.22h-.154l-.132.154h-.11c-.089.4-.664.464-1.195.51a5.071 5.071 0 0 0-.574.088l-.972.64v-.044a2.063 2.063 0 0 1-.53.044c-.177 0-.376 0-.929.552v-.11a4.681 4.681 0 0 1-1.216.53 5.377 5.377 0 0 0-.8.266h.067a1.117 1.117 0 0 1-.553.155.652.652 0 0 0-.575.264s-.375.154-.375-.045a1.328 1.328 0 0 1-.928-.176l-.331-.464.132-.111-.176-.088c-.288-.111-.6-.155-.288-.486a1.269 1.269 0 0 1 .266-.464.68.68 0 0 0 .176-.442h.044a5.92 5.92 0 0 0 .53-.6 2.868 2.868 0 0 1 1.084-1.016c.023-.264.353-.442.618-.618.111-.066.2-.133.2-.2v-.222a2.964 2.964 0 0 0 .928-.884 2.674 2.674 0 0 1 .332-.354c-.022 0-.044-.044-.066-.066a.079.079 0 0 0 .022-.044l-.022.022v-.022c-.022-.022-.022 0 0 .022l-.354.332v-.11c-.6.176-1.1.442-1.7.662-.286.133-.884.377-1.215.487v-.221c-.11-.022-.2-.022-.266-.11-.574.795-.264-.046-.486-.42-.2-.2-.11-.486-.022-.708l.178-.354h.2a1.823 1.823 0 0 1 .508-.928.939.939 0 0 0 .31-.663 6.4 6.4 0 0 0 1.436-1.658c.088-.11.154-.243.243-.374a.343.343 0 0 1-.177-.178 5.455 5.455 0 0 1-1.879.884c-.265 0-.354-.088-.4-.176 0 0-.022-.023.023-.044l-.088-.044-.066.066h-.53l-.044-.221c.066 0 .022-.11-.024-.219a.511.511 0 0 1 .024-.532c-.089-.155.022-.265.132-.42a.294.294 0 0 0 .088-.222 1.641 1.641 0 0 0 .266-.374 1.2 1.2 0 0 1 .42-.508h-.045a6.462 6.462 0 0 1 1.128-1.282 4.7 4.7 0 0 0 .8-.818l-.022.022a1.852 1.852 0 0 1 .6-.728 1.731 1.731 0 0 0 .618-.8h-.346c-.708.243-1.438.552-2.144.8v.243c-.044 0-.31.022-.4.022-.376.066-.994.088-1.1-.221-.244 0-.2-.044-.024-.221 0 0 .024.045.024-.286a1.526 1.526 0 0 0 1.3-.112l.376-.154a3.963 3.963 0 0 0 1.061-.376c.376-.332.487-.264.509-.176l.111-.044.442-.022.088-.09a1.113 1.113 0 0 0 .464-.154.624.624 0 0 1 .465-.066m-2.564 14.852c-.022 0-.067.023-.089.023l.044.022z" transform="translate(-12.35 -17.363)"/>
        <path fill="#ffffff" d="M272 264.792c.111-.088.243-.221.441 0l.266.066c.088.022.154.066.154-.243 0-.6.244-.376.486-.045a.069.069 0 0 1 .023-.044l.354.044v.178a1.437 1.437 0 0 1 .707.308l-.111.09h.222l-.332.331.332.332c-.31 0-.088.42-.088.42h-.266v.111c0 .442.066.928-.42.994a.587.587 0 0 1-.044.376l.022-.022c-.022.132-.088.288 0 .42a1.429 1.429 0 0 1-.331.243.189.189 0 0 0-.111.2l-.2.2a.992.992 0 0 0 .22.221l-.31.331h-.221l.088.111c.111.154.2.309-.154.508a.28.28 0 0 1 .022.132.625.625 0 0 0 .022.2 3.349 3.349 0 0 1 .42-.2.042.042 0 0 1 0 .066.4.4 0 0 1 .154-.11c.178-.376.442-.266.774-.2.2.044.42.088.42-.288 0 0 .354-.243.354 0 .154-.176.353-.376.4.066.044-.022.088-.022.11-.044a1.748 1.748 0 0 1 .4-.487l.089.176a1.353 1.353 0 0 1 .6 0 .841.841 0 0 1 .221.022 1.054 1.054 0 0 1 .774-.242c0 .31 0 .552-.508 1.082-.155-.309-.177-.309-.2-.286h.021a.922.922 0 0 1-.287.154v.154l-.332.244a1.5 1.5 0 0 1-.243.264c-.09.133-.508.133-.508.133-.067-.022-.156.088-.266.2-.243.244-.442.487-.862.332a.678.678 0 0 1-.22.11.744.744 0 0 0-.354.221l-.884.332a.877.877 0 0 1-.53 0l-.841.154a2.064 2.064 0 0 1-.22-.22h-.133a.38.38 0 0 0-.111-.044l-.4-.154-.111.11v-.178l-.088-.066h.088c-.022-.22-.044-.331-.044-.376-.044-.176-.133-.309.11-.552l.288-.154h-.022c.11-.066.221-.133.133-.376l.133.044c-.067-.044-.022-.176.066-.286-.287-.4-.133-.575.044-.818a.749.749 0 0 0 .176-.53l.177-.2c0-.066.022-.2.022-.243a3.661 3.661 0 0 0 .331-.442 2.916 2.916 0 0 1 .332-.4.465.465 0 0 1 .221-.53c.023-.023.066-.044-.176-.244a2.448 2.448 0 0 1-.685.221l-1.57.663h-.022l.066.066a1.421 1.421 0 0 1-.11.376l-.066.133a.455.455 0 0 1 .154.4l.022-.023v1.016h-.243c0 .045.022.068.044.111a.612.612 0 0 1-.023.64c.287.31.066.4-.155.552-.088.044-.176.111-.065.31a.622.622 0 0 0-.09.354c0 .243-.728.662-.774.2h-.221c-.331 0-.354-.176-.442-.4a1.472 1.472 0 0 0-.2-.354l.2-.441a.417.417 0 0 1-.023-.4.8.8 0 0 0 0-.708c.2-.11.176-.286.155-.464-.022-.22-.044-.464.243-.618l-.155-.2a6.7 6.7 0 0 0 .177-.838 4.256 4.256 0 0 1 .265-.907 1.2 1.2 0 0 0-.088-.354c-.089-.31-.155-.574.243-.752-.11-.11-.066-.132-.066-.2 0-.044 0-.088-.089-.2a.488.488 0 0 1 .619-.112 3.8 3.8 0 0 1 .884.73v.176l.22.244.088-.088h.112v-.221a36.49 36.49 0 0 1 .33-3.338c.045-.288.045-.53.089-.84a1.341 1.341 0 0 0-.464.133 1.38 1.38 0 0 1-.508.154c-.972.4-1.922.818-2.917 1.238-.022.308-.42.331-.795.353-1.172.2-.2-1.237-.156-1.348a1.386 1.386 0 0 1 .442-.221c.044-.2.089-.4.376-.354.044-.22.265-.176.53-.22s.64-.111.552-.066c.088.243.045.11.2-.022a.843.843 0 0 1 .4-.222v-.132l.375-.044c-.044-.066-.088-.088-.132-.066.221-.156.42-.288.53-.178a2.292 2.292 0 0 1 .53-.044v.133h.178c.022 0 .022 0 .022-.044l.861-.6a1.6 1.6 0 0 1 .288-.111 7 7 0 0 0 1.658-.442l-.022.023.663-.288c.088-.176.2-.308.354-.176.066 0 .11.023.154.023a.079.079 0 0 0 .066-.023l-.022.023c.066-.044.133 0 .133-.244l.508.022s.575.818.133.818a1.256 1.256 0 0 1-.752.465 1.209 1.209 0 0 1-.331.2v-.022c-.066.044-.088.022-.309.264a1.523 1.523 0 0 0-.774.265 2.423 2.423 0 0 1-.353.176 1.745 1.745 0 0 0-.309 1.326c0 .111.022.221.022.31l-.243.662-.089.066h.222a.656.656 0 0 0-.244.552c0 .178.022.31-.088.442.221.244.11.487.022.73-.088.264-.376.133-.066.243h.022l.221-.176zm-2.984-4.419c-.022.022-.044.044-.066.044zm2.343-6.808a2.18 2.18 0 0 1 .376.111l-.066.2c.176.2.286.354.132.574.088.2.133.176.2.176.155.044.288.044.265.442.088.088.176.2-.132.4l.132.178h-.022c.044.066-.044.022.221.286l-.221.244c.332.308.221.4.133.508 0 0-.023.023.066.088a1.519 1.519 0 0 1-1.415.663 2.32 2.32 0 0 0-.64.133c-.53 0-.53-.221-.53-.4l-.132.066a1.83 1.83 0 0 1-.266-.951 1.727 1.727 0 0 1 .11-.686 1.032 1.032 0 0 1 .022-.64c.067-.176.244-.552.244-.552v-.505a1.578 1.578 0 0 1 1.3 1.082c-.2 0-.441 0-.441.111l-.178.642c.243.286.088.442 0 .6a.62.62 0 0 0-.088.266.9.9 0 0 1 .641 0 1.456 1.456 0 0 1 .265-.266h-.022c.066-.044.11-.066.066-.154l-.066-.2a.5.5 0 0 1 .132-.574l.068-.066c-.332-.132-.377-.552-.377-.906-.044-.11-.176-.154-.264-.2-.288-.111-.53-.288-.332-.774.156 0 .156 0 .156-.244 0 0 .574 0 .662.354m-.618 17.99h.133a.17.17 0 0 0-.088-.044c-.023 0-.023.022-.044.044m.309-.022c0-.066-.023-.022-.044 0zm1.084-15.183c-.022-.023-.022-.023-.022-.066-.111 0-.111.022-.111.022zm.486 9.879a1.471 1.471 0 0 1-.331.221c.376 0 .376 0 .376-.11v-.153c-.022 0-.044.042-.066.042z" transform="translate(-15.997 -16.891)"/>
        <path fill="#ffffff" d="M288.943 259.4a5.524 5.524 0 0 1-.044.618 8.616 8.616 0 0 0-.044.753 3.815 3.815 0 0 0 .111.9h-.089a1.183 1.183 0 0 1-.089.354l.023-.022a1.186 1.186 0 0 0-.088.53v.353a1.04 1.04 0 0 1-.266.178.835.835 0 0 1 .045.243l-.221.223a1 1 0 0 1-.111.795 1.3 1.3 0 0 0-.11.6h-.111c.133.22-.133.376-.221.4h.066l-.11.111c.618.176.176.331.176.6 0 .109 0 .243-.376.663a3.345 3.345 0 0 0-.066.728l-.088.088h.221l-.664.664c-.442 0-.442-.09-.442-.243 0-.088 0-.176-.243-.42.331 0 .111-.11.111-.11a.331.331 0 0 0 .132-.31.452.452 0 0 1 .111-.331 5.525 5.525 0 0 1 .045-.64c.022-.243.044-.465.044-.707a1.9 1.9 0 0 0-.089-.621.625.625 0 0 0 .221-.53h-.221c-.066.354-.442.554-.839.731v-.023a2.915 2.915 0 0 0-.464.287l-.575.288h.022c-1.215.664-2.63 1.392-3.845 2.033-.287-.264-.287-.264-.8-.264v-.465c-.288-.044-.288-.221-.31-.4a.629.629 0 0 0-.2-.376 2.4 2.4 0 0 1 .772-.176l2.211-1.128.552-.176c0-.022-.044-.088.044 0a1 1 0 0 1 .6-.53v-.11l.288-.066a.042.042 0 0 1 0-.067l1.083-.2.8-.442c0-.111-.022-.2-.11-.221l.066-.2h.42c.044.088.044.11.066.11l.132-.044.089-.044v-.022h-.089l-.088-.176.177-.066.464-.111.2-1.215.264-.884a.85.85 0 0 1 .155-.708v-1.325a1.762 1.762 0 0 1 .841.751c.066.155.132.266.243.266zm-5.635-1.923c.22.066.419.42.419.42l-.2.2a1.132 1.132 0 0 1 .42.751h-.265l.044.088c.288.176.243.176.155.31a.172.172 0 0 0 .066.133 2.117 2.117 0 0 0-.044 1.061 5.256 5.256 0 0 1 .044.928 1.6 1.6 0 0 1-1.171.994.2.2 0 0 0-.287.022s-.42-.22-.618-.022c-.929-.22-1-.861-1.062-1.568a4.582 4.582 0 0 0-.11-.731l.022.024c-.11-.244.044-.442.178-.62a.993.993 0 0 0 .2-1.039h.309s-.022.044.155-.132v-.752c.6 0 .552.11.618.222.044.11.11.22.244.22a9.334 9.334 0 0 0-.089 1.1 2.31 2.31 0 0 1-.287.686c.11.088.022.286 0 .464a1.507 1.507 0 0 0-.044.354h-.155c.045.066.045.154.067.178.022.131.022.241.176.241.2.134.288-.065.4-.241v.021c.11-.176.176-.31.376-.377v-.795a7.326 7.326 0 0 0-.332-1.946l.022.022-.176-.575h.929zm1.281 6.365v-.088l-.022.088z" transform="translate(-20.035 -18.046)"/>
        <path fill="#ffffff" d="M307.382 258.107c.154.176.2.22.266.244a2.659 2.659 0 0 1 .553.353.473.473 0 0 1-.377.441c.023.023.044.023.111.044a2.037 2.037 0 0 1-.618 1.724h-.111a2.006 2.006 0 0 1-.022.884 2.241 2.241 0 0 0-.044.42 1.018 1.018 0 0 0-.53.09c.4.088.331.4.287.683a1.191 1.191 0 0 0-.022.288c-.354 0-.354.154-.4.332a.844.844 0 0 1-.132.4c.066.132-.066.243-.2.374-.177.156-.376.333.022.752-.353 0-.353.132-.353.242a.754.754 0 0 1-.044.354.766.766 0 0 1 .044.377l-.244.242-.22.442a1.1 1.1 0 0 1-.066.642 2.4 2.4 0 0 0-.62 1.193c-.066.2-.11.4-.2.642l-.465.574a2.489 2.489 0 0 1-.4-1.26 1.818 1.818 0 0 1 .155-.862c.2-.2.021-.2.021-.2a10.087 10.087 0 0 1 .421-1.194 4.408 4.408 0 0 0 .353-2.387.586.586 0 0 0 .42-.53 1.168 1.168 0 0 1 .178-.508 16.683 16.683 0 0 1 .552-1.747 13.039 13.039 0 0 0 .442-1.3.581.581 0 0 0-.133.111.581.581 0 0 1-.64.176l-.487.155a4.679 4.679 0 0 0-1.7.773v.73c-1.016-.331-1.038-.8-.994-1.216 0-.088.022-.2.022-.287 0-.508-.53-.73.442-.266-.022-.042-.088-.154-.044-.2a.5.5 0 0 0 .154.088v-.266a1.492 1.492 0 0 1 .752.111l.022-.023c-.154-.353.066-.441.288-.486v-.156c.133 0 .287.266.376.53 0-.022 0-.022.022-.044a1.008 1.008 0 0 1 .862-.728c-.264-.442 0-.354.4-.221.066.022.155.066.221 0 .133-.133.353-.11.553-.11l.442-.553zm4.929-.133a.8.8 0 0 1 .553.221v1.194h-.264v.066h.508v.444h-.2a1.77 1.77 0 0 1 0 .6.467.467 0 0 0 .288.574l-.6.487h.266v.575l-.222-.111c0 .088-.022.155-.022.2-.022.066-.022.11.244.11v.686a.46.46 0 0 1-.31.154 1.356 1.356 0 0 0 .178.176c-.354 0-.155.354-.155.354a1.033 1.033 0 0 1-.221.994h.022a.71.71 0 0 0-.044.906c-.265.264-.155.552-.066.818l-.023-.022c.133.353.309.64-.177.817a2.086 2.086 0 0 1 .132.62 1.727 1.727 0 0 1-.928 1.37.915.915 0 0 1-.331-.818 1.058 1.058 0 0 0-.133-.664c.265-.264.2-.419.133-.53a.51.51 0 0 1-.088-.575l-.023.044.045-.773c.154-1.37.2-2.63.221-3.979l.288-3.8c.11 0 .11-.044.133-.11.022-.2.11-.4.8-.4z" transform="translate(-26.673 -18.185)"/>
        <path fill="#ffffff" d="m327.75 262.006.022-.021.354.044a.98.98 0 0 1-.066.243c-.044.088-.066.176.088.31l-.288.264-2.806.62-1.436.2a.822.822 0 0 1-.488-.574v.376a.472.472 0 0 0-.375.176c-.089.088-.133.154-.221.176 0 .354-.066.575-.53.6v.11c-.022 0-.044.022-.154.088l.243.176a.615.615 0 0 0-.309.486c-.022.156.021.266-.2.288 0 .244-.044.575-.818.575v-.286a.93.93 0 0 0 .044-.554.954.954 0 0 1 .155-.794c-.155-.31.11-.553.286-.752a.382.382 0 0 0 .089-.2 1.833 1.833 0 0 1 .575-1.391 1.475 1.475 0 0 1 .2-.354l-.023.021a1.091 1.091 0 0 0 .221-.618 1.839 1.839 0 0 0 .221-.42 1.4 1.4 0 0 1 .154-.31 1.125 1.125 0 0 1 .222-.464.425.425 0 0 0 .11-.376h-.044a.814.814 0 0 1-.442.156v.2c-.2 0-.618 0-.773.332a2.218 2.218 0 0 1-.862.242 3.368 3.368 0 0 0-.905.31l-.2.176v-.133l-.176.178v-.6a.464.464 0 0 1-.177 0 1.443 1.443 0 0 0-.133.266l-.33-.487s.066.044.066-.154l.618-.552c.11 0 .133-.045.176-.133.022-.022.045-.043.575-.243h.2c.066-.133.154-.266.75-.354a1.338 1.338 0 0 1 .31-.044c.044 0 .089 0 .442-.377a.964.964 0 0 0-.044-.243 1.411 1.411 0 0 1 .088-.927c.045 0 .045-.045.045-.067v-.176a.747.747 0 0 1-.089-.2v-1.3h.221c-.221-.244-.244-.442.133-.818-.133-.176.066-.508.066-.508.023 0 .044 0 .044.022a.228.228 0 0 1 .088-.176c-.133-.178-.066-.332-.022-.51a.608.608 0 0 0 .044-.286h.022a1.112 1.112 0 0 1 .134-.442.979.979 0 0 0 .044-.331h1.3a.264.264 0 0 0 .133.11c.133.023.221.067.221.442l-.133.045a9.538 9.538 0 0 0-.376 2.187c-.044.42-.088.818-.154 1.194l-.2.2a1.3 1.3 0 0 1 0 .463 1.546 1.546 0 0 1-.11.685 1.129 1.129 0 0 1 .11-.133h.156v-.111c.331-.331.464-.265.618-.066.155-.088.288.066.464.176a.419.419 0 0 1 .354.221l.066.64a.568.568 0 0 1-.265.465 1.208 1.208 0 0 1-.111.752 1.213 1.213 0 0 0-.111.552c0 .11-.132.2-.243.286-.067.09-.4.642-.42.708a.839.839 0 0 1-.177.243 1.217 1.217 0 0 0-.332.884l-.374.044a.067.067 0 0 1-.022-.044.022.022 0 0 0-.023.023c-.023 0-.023.043 0 .021v.022h.817c0 .09-.044.133-.066.133h.066a.38.38 0 0 1 .155-.022.52.52 0 0 1 .088-.111h.2l.178-.2h.11l.64-.088.2.022a1.943 1.943 0 0 1 .6-.11.418.418 0 0 1 .53-.134.3.3 0 0 1 .243.09c0-.022-.022-.045-.022-.066a.233.233 0 0 0 .221-.088zm-2.5 3.493-.266.264-.088-.088a.5.5 0 0 1-.088.331.483.483 0 0 1 .176.53.491.491 0 0 0 .044.288l-.33.11c-.156-.154-.046.066.154.243 0 .2-.154.2-.31.243-.022 0-.022 0-.044.044h.354a.481.481 0 0 1-.2.376c0 .022.046.11.046.132a.64.64 0 0 1-.134.686.622.622 0 0 1-.022.133v.022l.178.2a.484.484 0 0 1 .4-.243c.112-.132.288-.132.487-.132h.817a1.014 1.014 0 0 0 .178-.156.779.779 0 0 1 .331-.22c.043-.088.2-.088.4-.088l.022-.046.354.023v-.221c.377.2.377.132.377.132h.972l.132-.044a.571.571 0 0 1 .686.133v.243c-.178.044-.2.288-.2.464l-.11.023c.088.176-.132.2-.376.288a.431.431 0 0 0-.332.243h-.066a.625.625 0 0 1-.53.132 1.013 1.013 0 0 1-.42.156l-.088.045c0 .219-.088.219-.244.153a.167.167 0 0 1 .046.111 1.2 1.2 0 0 1-.31-.023c-.088.111-.243.288-.486.133l-.133.023c-.022-.023-.044 0-.09.044l-.353.332s.023.022-.288-.09a.468.468 0 0 1-.332.156c-.154.264-.419.154-.684.088-.023 0-.023 0-.023.11h-.221a1.25 1.25 0 0 1-.353.221c.154-.045-.686.708-.486.176-.088 0-.133.023-.133 0a2.325 2.325 0 0 1-.4.221 3.725 3.725 0 0 1-.575.244l-.11-.111-.133.266-.884-.288c-.2-.09-.42-.2-.221-.464-.067-.2-.111-.4-.177-.576a2.19 2.19 0 0 1 1.106-.551 1.063 1.063 0 0 0 .839-.685h.044a.117.117 0 0 1-.066-.088.272.272 0 0 0 .066-.134l.088-.176a.243.243 0 0 0 .2-.088l-.177-.178a2.222 2.222 0 0 1 .265-.972 5.948 5.948 0 0 0 .31-.772c-.088-.156-.088-.244-.022-.288h-.044a.6.6 0 0 0 .066-.53c-.022-.044-.088-.022.2-.176a1.567 1.567 0 0 1 .266-1.018l-.088-.11.4-.221.331-.31c.088-.11.244-.264.508.31a3.832 3.832 0 0 0-.2 1.017m-2.9-9.99.154-.023c-.066-.221-.154-.133-.154-.133zm.818-2.189c-.243-.31-.288-.332-.288-.088a.886.886 0 0 1 .288.088m1.215 15.847c0 .022.022.022.066-.111l-.088.111zm.332-4.287c-.266-.309-.288-.4-.288-.09a.847.847 0 0 1 .288.09" transform="translate(-31.658 -16.669)"/>
        <path fill="#ffffff" d="M338.444 257.258a.249.249 0 0 0 .111.243h-.023c.176.11.31.176.176.464.244.176.111.377-.044.553-.11.155-.2.288.044.42a.757.757 0 0 0 .044.288c.044.264.133.553-.508.553a.309.309 0 0 1 .177.154c.067.221.2.442.089.62a5.649 5.649 0 0 0-.641 1.723c-.045.2-.067.42-.177.84h-.092a4.637 4.637 0 0 0-.11.552 3.475 3.475 0 0 1-.288.884 3.183 3.183 0 0 0-.11.618 2.075 2.075 0 0 1-.553 1.526l.331.353h-.353v.487h-.686v-.641l-.4.42a8.6 8.6 0 0 0 .376-2.276 7.743 7.743 0 0 1 .287-1.525 7.037 7.037 0 0 0 .685-2.123 8.147 8.147 0 0 1 .752-2.209v-.73l-.642.221a8.448 8.448 0 0 0-2.187 1.105c-.066 0-.111.066-.133.132-.133.222-.265.4-.575.11a.59.59 0 0 1-.464-.618.76.76 0 0 0-.176-.464l2.917-1.568a1.269 1.269 0 0 0 .928-.178c.442-.2.819-.375 1.171-.023zm4.354 2.055a.284.284 0 0 0 .265.266 2.1 2.1 0 0 1-.221 1.017c.221.088.221.286.176.574a1.107 1.107 0 0 0 .111.773h-.329v.62l.817-.442h.463c-.064-.11.134-.11.354-.11v-.023a.851.851 0 0 1 .664-.155c.044.022.066 0 .066-.044a2.83 2.83 0 0 0-.288-.264.9.9 0 0 1 1.039-.221.512.512 0 0 0 .552-.133h.752c.066.066.154.044.243 0a.955.955 0 0 1 .353-.11v-.461c.708.685.554.662.487.773-.023.022-.044.044-.044.221l-.8.243a.957.957 0 0 1-.532.178c-.154.02-.308.02-.506.53l-.354-.044v.243a1.953 1.953 0 0 1-.686.221c-.243.044-.508.111-.928.751-.287-.286-.441-.11-.618.066l-.332.133-.502.285c-.11-.11-.176-.044-.242 0l-.2.134a.913.913 0 0 0 .045.242c.088.377.177.774-.2.774l.044.022h.243c-.265.264-.265.377-.265.465s.022.154-.044.2a1.909 1.909 0 0 1 .133.928 1.1 1.1 0 0 0 .089.774c.177.508-.331.574-.862.64a1.785 1.785 0 0 0-.729.244 5.442 5.442 0 0 1-.243-1.459 5.084 5.084 0 0 1 .4-1.922 3.386 3.386 0 0 1-.133-.929 2.3 2.3 0 0 1 .354-1.238l.53-5.813a2.329 2.329 0 0 1 1.149 2.055z" transform="translate(-35.899 -17.998)"/>
        <path fill="#ffffff" d="m363.411 263.661-.685.154c-.2.155-.686 0-.686 0-.508-.264-.464-.6-.42-.972a1.691 1.691 0 0 0 .022-.332l.266-.64a5.039 5.039 0 0 1 .22-.575v.023c.066-.332.133-.686.177-1.017a4.4 4.4 0 0 1 .619-1.967l-2.012.663v.288c-.728 0-1.415-.266-1.415-1.084a.767.767 0 0 1 .708-.442.8.8 0 0 0 .4-.133h.088v-.22h.707c.111-.222.487-.244.817-.244.111.088.156.044.222-.022a.759.759 0 0 1 .6-.264c.022-.068.11-.111.2-.178h-.021l.994-.221a.534.534 0 0 1 .2-.044l.486-.222h.066c.11-.242.641-.242.929-.242v.11c.442-.266.95-.508.95.243l-.022.044c-.11.288-.442.442-.707.576a.692.692 0 0 0-.266.154l-1.458.731-1.283.441a1.423 1.423 0 0 1 .442.906 4.052 4.052 0 0 1-.286 1.216 1.161 1.161 0 0 1 .066.752c-.023.132-.066.33-.066.4 0 .4.221.31.463.222a1.811 1.811 0 0 1 .575-.133l1.635-.664v-.221h.4l-.221-.266h.817l.4-.464v.6l.066-.044v-.64c.4.42.442.464.42.464a.712.712 0 0 1 .487.176 2.04 2.04 0 0 1-.044.244.44.44 0 0 0 .066.53l-.6.552h-.264c-.133.11-.288.266-.421.354a3.32 3.32 0 0 1-.663.288l-.132.044-.156.11.044.133c-.4.088-.331.442-.287.774a1.188 1.188 0 0 1-.044.618 2.861 2.861 0 0 0-.377 1.5c-.243 0-.286.266-.265.464s.023.442-.154.53v.244s-.176.022-.2.42a6.709 6.709 0 0 1 1.017-.354l.022-.023c.221-.11.4-.331.508-.22a1.11 1.11 0 0 1 .707-.156c.066-.154.265-.11.442-.022-.023-.022-.023-.022-.023-.044l.465-.154h.044a2.07 2.07 0 0 0 .6-.287h-.022l.066-.045.023.022a.4.4 0 0 1 .574-.2l.221-.09a.72.72 0 0 0 .441-.419h.155l.729-4.133a3.689 3.689 0 0 1 .664 1.745 4.089 4.089 0 0 1-.154 1.039c.11.176.021.309 0 .464-.044.154-.09.287 0 .353a4 4 0 0 0 .021.907c.023.355.067.575-.2.774a4.5 4.5 0 0 1-.11.618 2.062 2.062 0 0 0-.088.6v1.369h-.222v.8a1.438 1.438 0 0 1-1.259-.508 9.663 9.663 0 0 1 .155-2.276.57.57 0 0 1-.11-.133l-.045.066a3.351 3.351 0 0 1-.619.73v-.31a.678.678 0 0 1-.176.044v.023l-.4.42a2.914 2.914 0 0 1-.994.4.938.938 0 0 0-.42.176l-3.183 1.084a1.252 1.252 0 0 0-.464.132h-.022a1.2 1.2 0 0 1-.929.066.986.986 0 0 1-.662-.22 1.183 1.183 0 0 1-.288.022v-1a2.008 2.008 0 0 0 .884-.53h-.023a2.881 2.881 0 0 1 .53-.309l-.11.044a2.58 2.58 0 0 1 .354-.508 2.014 2.014 0 0 0 .464-.752l.618-1.436.862-2.011zm1.194 3.757a.17.17 0 0 0 .088-.022l-.088-.088zm4.309-1.172c.021-.022 0-.043-.089-.043z" transform="translate(-43.605 -17.66)"/>
        <path fill="#ffffff" d="m383.191 257.35-2.276.818-2.785.929v.242a3.056 3.056 0 0 0-.508.023c-.42.044-.862.11-1.105-.354a12.786 12.786 0 0 1 3.4-1.393c.486-.154.972-.264 1.458-.441a2.175 2.175 0 0 0 .64-.178H382a2.56 2.56 0 0 1 1.016-.243h.752zm-3.094 8.244a.08.08 0 0 0 .066.022.8.8 0 0 1 .354-.2l.508-.42c.022-.022.044-.022.044-.044a1.156 1.156 0 0 1 .243-.376h.066c0-.22.2-.331.376-.42.023 0 .066-.066.066-.2h.243a1.324 1.324 0 0 1 .62-.64h-.023a1.872 1.872 0 0 0 .331-.244.684.684 0 0 0 .31-.31.621.621 0 0 1 .618-.353 1.467 1.467 0 0 0 .531-.42.631.631 0 0 1 .375-.332l1.194-1.194c-.044-.044-.09-.066-.111-.11.353-.552.133-.309.177-.42l-.022.022a.7.7 0 0 1 .8-.64.751.751 0 0 0 .353.244c.111.044 0-.068.111.022.243-.2.287-.022.442.176l.177.222a6.881 6.881 0 0 1-.177 1.989v.22l-.2.2a2.252 2.252 0 0 0 .066.552.951.951 0 0 1 .111-.022c.066 0 .2-.044.6-.442.154.2.176.2.2.176h.023a1.57 1.57 0 0 1 .31-.088v-.176a.879.879 0 0 0 .839-.044c.177-.09.265-.244.509-.133a1.528 1.528 0 0 1 .552 0c.111.022.221.022.176-.066 0 0 .332-.243.332-.044l.176-.176s.442.442.133.751h-.376a.4.4 0 0 1-.111.156l-.021.022h.177c0 .4-.354.4-.8.4v-.11l-.022.022c-.044.044-.066.111-.133.178.575.353-.618.331-.618.331h-.067a2 2 0 0 1-.441.2l-.376.154a2.854 2.854 0 0 0-1.326.818 1.061 1.061 0 0 0-.331.088c0 .044 0 .133.022.154.066.133.176.266 0 .31 0 .023.022.044.044.088a.568.568 0 0 1-.044.642v.465a.64.64 0 0 1-.022.684l.2.618v.044l.068.221c-.023 0-.068.066-.089.111h.021c-.154.221-.243.442-.53.11a.172.172 0 0 0-.044.09l-.42-.023v-.023a1.173 1.173 0 0 1-.287-.154.438.438 0 0 0-.288-.111 1.811 1.811 0 0 1-.154-.8 1.335 1.335 0 0 0-.266-.862 1.414 1.414 0 0 0 .155-.618 2.972 2.972 0 0 0-.155-.774 12.428 12.428 0 0 0 .376-2.585l-1.215.906h.022l-3.493 3.315-1.37.907-.419-.156c.022 0 .044-.044.11-.088l-.045-.044c-.308-.044-.883-.242-.861-.464a9.937 9.937 0 0 1-.044-1.149 25.934 25.934 0 0 1 .531-4.6c.022-.244.066-.442.11-.686l.442-1.149c.4 0 .774 0 .774.266a2.9 2.9 0 0 1-.177.751 1.055 1.055 0 0 0-.023.642c-.132.154.111.308.332.308-.332.332-.332.464-.332.642.42.264.133.53.133.53l-.089.088a.39.39 0 0 1 .155.53c-.023.088-.089.154 0 .244a.268.268 0 0 0 0 .4z" transform="translate(-48.622 -17.935)"/>
        <path fill="#ffffff" d="m301.734 223.815 4.518-19.439-11.266 19.042h-4.436l-.538-19.042-5.982 19.439h-5.23l8.079-24.216h7.645l.364 15.827 9.4-15.827h7.975l-4.987 24.216z" transform="translate(-19.813 -1.085)"/>
        <path fill="#ffffff" d="M333.352 203.579h2.314c2.219 0 4.041.756 4.041 3.055 0 2.441-2.257 4.417-5.662 4.417a11.916 11.916 0 0 1-2.219-.178zm-9.806 20.232h5.584l1.821-8.695c.6.037 1.391.143 2.339.143a15.065 15.065 0 0 0 8.555-2.259 8.169 8.169 0 0 0 3.6-6.79 5.658 5.658 0 0 0-2.89-5.136c-1.941-1.26-4.677-1.483-7.1-1.483h-6.849z" transform="translate(-33.006 -1.082)"/>
        <path fill="#ffffff" d="M369.274 199.6h5.947l-19.14 24.216h-6.622l7.682-9.233-4.383-14.983h5.595l2.631 10.535z" transform="translate(-40.645 -1.085)"/>
        <path fill="#ffffff" d="M393.223 196.48a20.427 20.427 0 0 0-7.987 1.578l-9.544 12.075a15.845 15.845 0 0 0-.247 2.747c0 6.2 4.706 11.106 13.121 11.106h.045a18.607 18.607 0 0 0 11.961-3.872 16.207 16.207 0 0 0 5.722-12.531c0-6.362-4.518-11.1-13.07-11.1m-3.8 23.32h-.05c-5.046 0-7.289-2.979-7.289-6.968 0-5.366 4.113-12.164 10.408-12.164 5.517 0 7.076 3.4 7.076 6.923 0 5.326-4.112 12.209-10.145 12.209" transform="translate(-48.306 -.166)"/>
        <path fill="#ffffff" d="M264.424 223.816h5.976l-3.083-24.216h-7.33l-13.031 24.216h6.1l2.486-5.158h8.445zm-6.985-9.094s4.53-9.625 5.2-11.1l1.015 11.1z" transform="translate(-10.425 -1.086)"/>
        <path fill="#ffffff" d="M231.435 207.568c-3.247-1.221-5.378-1.96-5.719-3.5-.321-1.426.948-2.83 4.374-3.14 4.569-.337 9.234 1.537 12.275 3.276l2.56-4.759a27.279 27.279 0 0 0-15.791-3.424h-.033c-6.55.59-12.021 3.654-10.844 8.9.642 2.869 3.479 5 8.3 6.856 2.54.975 5.237 2.143 5.57 3.634.444 1.992-1.938 3.241-4.746 3.508h-.056c-4.649.416-9.426-1.357-13-3.266L211.6 220.8a33.458 33.458 0 0 0 15.847 3.309 19.475 19.475 0 0 0 7.171-1.447l4.907-9.117c-.855-2.34-3.237-4.159-8.086-5.979"/>
    </g>
</svg>
