<svg xmlns="http://www.w3.org/2000/svg" width="75.6" height="71.842">
    <defs>
        <style>
            .cls-1{fill:none;stroke:#68cd71;stroke-linecap:round;stroke-linejoin:round;stroke-width:2px}
        </style>
    </defs>
    <g id="그룹_5440" data-name="그룹 5440" transform="translate(-2355 -3340.981)">
        <path id="패스_3134" data-name="패스 3134" class="cls-1" d="m2396.766 3386.78 9.866 13.067s3.717 6.25 9.032 3.934a6 6 0 0 0 3.567-5.8 9.2 9.2 0 0 0-1.667-4.8l-22.4-32.111a51.277 51.277 0 0 1-8.672 5.128c-11.5 5.467-15.491.887-15.491-3.912 0-2.288 5.594-3.134 13.5-11.038 7.321-7.319 8.224-9.266 12.267-9.266h4.727c8.033 0 9.77 1.521 14.312 4.549 7.321 4.879 9.761 6.925 9.761 6.925v36.744h-10.152" transform="translate(4.035)"/>
        <path id="패스_3135" data-name="패스 3135" class="cls-1" d="M2404.678 3391.407c.125 1.3.8 4.6-2.251 6.6-5.129 3.364-8.749-2.2-8.749-2.2l-11.2-16" transform="translate(7.122 10.174)"/>
        <path id="패스_3136" data-name="패스 3136" class="cls-1" d="M2395.4 3394.853a5.12 5.12 0 0 1-2.854 3.849c-4.85 2.4-7.694-.372-7.694-.372l-11.2-16" transform="translate(4.748 10.852)"/>
        <path id="패스_3137" data-name="패스 3137" class="cls-1" d="M2390.262 3346.981c-14.643 0-18.979 5.076-25.379 5.076H2356v36.8h2.538c4.27 0 9.036 6.558 9.036 6.558l8.451 11.564s3.548 5.5 8.632 2.657c1.892-1.06 2.855-2.221 3.172-3.754" transform="translate(0 1.345)"/>
    </g>
</svg>
