<svg xmlns="http://www.w3.org/2000/svg" width="82.074" height="92.069">
    <defs>
        <style>
            .cls-1{fill:none;stroke:#68cd71;stroke-linecap:round;stroke-linejoin:round;stroke-width:2px}
        </style>
    </defs>
    <g id="그룹_5449" data-name="그룹 5449" transform="translate(-559 -2522)">
        <g id="그룹_3380" data-name="그룹 3380" transform="translate(560 2523)">
            <g id="그룹_117" data-name="그룹 117">
                <path id="패스_46" data-name="패스 46" class="cls-1" d="M844.493 1116.5v-21.458a7.729 7.729 0 0 1-6.576-11.807l-19.026-10.985a7.728 7.728 0 0 1-13.394 0l-19.026 10.985a7.729 7.729 0 0 1-6.576 11.807v21.458a7.728 7.728 0 0 1 6.658 11.67l18.944 10.938a7.728 7.728 0 0 1 13.394 0l18.944-10.937a7.728 7.728 0 0 1 6.658-11.67z" transform="translate(-772.157 -1060.649)"/>
                <path id="패스_47" data-name="패스 47" class="cls-1" d="M810.246 1061.57a7.729 7.729 0 1 0 7.739 7.738 7.738 7.738 0 0 0-7.739-7.738z" transform="translate(-770.209 -1061.57)"/>
                <path id="패스_48" data-name="패스 48" class="cls-1" d="M787.084 1082.659a7.729 7.729 0 1 0 1.163 4.068 7.728 7.728 0 0 0-1.163-4.068z" transform="translate(-772.771 -1060.069)"/>
                <path id="패스_49" data-name="패스 49" class="cls-1" d="M780.509 1112.994a7.728 7.728 0 1 0 7.739 7.739 7.738 7.738 0 0 0-7.739-7.739z" transform="translate(-772.771 -1057.138)"/>
                <path id="패스_50" data-name="패스 50" class="cls-1" d="M816.943 1134.115a7.73 7.73 0 1 0 1.042 3.867 7.731 7.731 0 0 0-1.042-3.867z" transform="translate(-770.209 -1055.652)"/>
                <path id="패스_51" data-name="패스 51" class="cls-1" d="M839.983 1112.994a7.739 7.739 0 1 0 7.738 7.739 7.739 7.739 0 0 0-7.738-7.739z" transform="translate(-767.646 -1057.138)"/>
                <path id="패스_52" data-name="패스 52" class="cls-1" d="M839.983 1078.988a7.739 7.739 0 1 0 7.738 7.739 7.728 7.728 0 0 0-7.738-7.739z" transform="translate(-767.646 -1060.069)"/>
            </g>
        </g>
        <path id="빼기_1" data-name="빼기 1" class="cls-1" d="M25.141 11.952H0A12.6 12.6 0 0 1 5.2 1.743 11.988 11.988 0 0 1 8.621.014l.018-.006a.022.022 0 0 0 .009 0h.009a8.141 8.141 0 0 0 .89.44 7.772 7.772 0 0 0 3.017.607A7.862 7.862 0 0 0 16.484 0l.124.043a12.9 12.9 0 0 1 6.159 4.578 12.4 12.4 0 0 1 2.374 7.33z" transform="translate(587.467 2568.022)"/>
        <circle id="타원_49" data-name="타원 49" class="cls-1" cx="7.832" cy="7.832" r="7.832" transform="rotate(-67.309 2221.6 839.735)"/>
    </g>
</svg>
